<?xml version="1.0" encoding="UTF-8" standalone="no"?>
<!-- Created with Inkscape (http://www.inkscape.org/) -->

<svg
   xmlns:dc="http://purl.org/dc/elements/1.1/"
   xmlns:cc="http://creativecommons.org/ns#"
   xmlns:rdf="http://www.w3.org/1999/02/22-rdf-syntax-ns#"
   xmlns:svg="http://www.w3.org/2000/svg"
   xmlns="http://www.w3.org/2000/svg"
   xmlns:xlink="http://www.w3.org/1999/xlink"
   xmlns:sodipodi="http://sodipodi.sourceforge.net/DTD/sodipodi-0.dtd"
   xmlns:inkscape="http://www.inkscape.org/namespaces/inkscape"
   width="640"
   height="200"
   id="svg2"
   version="1.1"
   inkscape:version="0.47 r22583"
   sodipodi:docname="banner-640x200.svg">
  <defs
     id="defs4">
    <linearGradient
       id="linearGradient2818">
      <stop
         style="stop-color:#b5cdca;stop-opacity:1;"
         offset="0"
         id="stop2820" />
      <stop
         style="stop-color:#eaf1f1;stop-opacity:1;"
         offset="1"
         id="stop2822" />
    </linearGradient>
    <linearGradient
       inkscape:collect="always"
       xlink:href="#linearGradient2818"
       id="linearGradient2824"
       x1="219.28572"
       y1="387.36218"
       x2="219.28572"
       y2="609.505"
       gradientUnits="userSpaceOnUse"
       gradientTransform="matrix(1.9823009,0,0,0.90032158,-114.69026,503.61164)" />
  </defs>
  <sodipodi:namedview
     id="base"
     pagecolor="#ffffff"
     bordercolor="#666666"
     borderopacity="1.0"
     inkscape:pageopacity="0.0"
     inkscape:pageshadow="2"
     inkscape:zoom="1.4390625"
     inkscape:cx="320"
     inkscape:cy="100"
     inkscape:document-units="px"
     inkscape:current-layer="layer1"
     showgrid="false"
     inkscape:window-width="1024"
     inkscape:window-height="717"
     inkscape:window-x="0"
     inkscape:window-y="29"
     inkscape:window-maximized="1" />
  <metadata
     id="metadata7">
    <rdf:RDF>
      <cc:Work
         rdf:about="">
        <dc:format>image/svg+xml</dc:format>
        <dc:type
           rdf:resource="http://purl.org/dc/dcmitype/StillImage" />
        <dc:title />
      </cc:Work>
    </rdf:RDF>
  </metadata>
  <g
     inkscape:label="Layer 1"
     inkscape:groupmode="layer"
     id="layer1"
     transform="translate(0,-852.36218)">
    <rect
       style="fill:url(#linearGradient2824);fill-opacity:1;fill-rule:evenodd;stroke:none"
       id="rect2816"
       width="640"
       height="200"
       x="0"
       y="852.36218" />
    <g
       transform="matrix(0.83632007,0,0,0.83632007,418.15837,172.18893)"
       id="layer1-8"
       inkscape:label="Layer 1">
      <path
         id="path4365"
         d="m 186.60341,933.8728 c -8.24726,0 -15.35418,3.6208 -18.61857,8.82851 -1.59773,-0.35675 -3.29647,-0.54884 -5.06212,-0.54884 -8.31453,0 -15.21036,4.27212 -16.50284,9.86348 -10.2787,1.32351 -18.10139,7.96521 -18.10139,15.97914 0,3.99974 1.95891,7.6612 5.18749,10.49071 -2.17663,2.232 -3.75089,4.80957 -4.5606,7.5897 -2.6913,-0.54901 -5.57549,-0.84678 -8.57269,-0.84678 -8.19608,0 -15.5325,2.23253 -20.452231,5.73931 0.380401,-1.30036 0.579871,-2.66177 0.579871,-4.07712 0,-6.00149 -3.651319,-11.18866 -8.964496,-13.67398 3.28749,-2.61932 5.328556,-6.2909 5.328556,-10.34959 0,-7.95957 -7.860561,-14.41102 -17.552865,-14.41102 -5.189218,0 -9.85768,1.84254 -13.070626,4.78276 -1.439678,-0.64642 -2.94142,-1.16173 -4.497927,-1.52107 -3.999169,-6.23096 -12.704798,-10.55344 -22.818716,-10.55344 -13.898416,0 -25.169546,8.15771 -25.169546,18.22155 0,2.3338 0.604119,4.56657 1.708265,6.61744 -7.0453899,1.83314 -11.97358,6.04212 -11.97358,10.9455 0,4.97235 5.0670183,9.23317 12.271355,11.02387 -0.534595,1.00343 -0.869096,2.05577 -0.971688,3.15192 -6.2084507,2.45792 -10.3123011,6.68777 -10.3123011,11.49425 0,6.7896 8.1810031,12.4302 18.9320271,13.5486 -0.0312,0.3968 -0.047,0.7881 -0.047,1.1918 0,9.5149 8.818959,17.2336 19.699962,17.2336 5.385961,0 10.266385,-1.8925 13.822872,-4.9553 3.013943,1.257 6.411704,1.9759 10.014537,1.9759 4.198302,0 8.116208,-0.9633 11.472062,-2.6345 4.652454,3.0933 10.627705,4.9554 17.161058,4.9554 10.216691,0 19.105181,-4.5466 23.633681,-11.2435 4.21716,2.8256 10.38964,4.6102 17.27076,4.6102 6.10631,0 11.64664,-1.4099 15.76625,-3.7007 5.25043,4.0594 13.65831,6.6802 23.13217,6.6802 4.18072,0 8.15312,-0.5216 11.73848,-1.4427 4.19523,8.1303 16.91827,14.0347 31.97128,14.0347 18.47027,0 33.4445,-8.8893 33.4445,-19.8681 0,-5.1741 -3.34172,-9.8715 -8.79213,-13.4074 1.38214,-1.845 2.16278,-3.936 2.16278,-6.147 0,-5.80509 -5.37403,-10.75728 -12.92959,-12.7018 2.3034,-2.31328 3.66732,-5.12871 3.66732,-8.1699 0,-7.86808 -9.04617,-14.25421 -20.20148,-14.25421 -2.06851,0 -4.06066,0.2198 -5.93977,0.62725 -1.43543,-3.9728 -5.13632,-7.18494 -9.90483,-8.6717 4.03988,-2.78326 6.58233,-6.75076 6.58233,-11.16501 0,-8.41702 -9.1924,-15.24212 -20.53058,-15.24212 z"
         style="fill:#ffffff;fill-opacity:1;stroke:#f2f2f2;stroke-width:1.19571459;stroke-linecap:round;stroke-linejoin:round;stroke-miterlimit:4;stroke-opacity:1;stroke-dasharray:none" />
    </g>
    <g
       transform="matrix(0.6304247,0,0,0.6304247,223.37165,290.48111)"
       id="layer1-9"
       inkscape:label="Layer 1">
      <path
         id="path4327"
         d="m 83.234289,930.0407 c -12.880136,0 -23.679106,8.37981 -26.663493,19.6908 -1.862369,-0.9025 -3.953774,-1.44576 -6.175135,-1.44576 -7.676397,0 -13.904276,6.06466 -13.904276,13.54125 0,1.24835 0.186416,2.45641 0.511187,3.60421 -11.610673,1.02857 -20.672387,9.44398 -20.672387,19.67047 0,10.92077 10.326983,19.77223 23.064741,19.77223 0.624403,0 1.248839,-0.02 1.860718,-0.061 -0.892981,2.9094 -1.390428,6.1106 -1.390428,9.4892 0,13.1049 7.449434,23.743 16.644236,23.743 2.77123,0 5.371298,-0.9793 7.667801,-2.688 4.036996,3.4399 11.135172,5.722 19.220616,5.722 0.02082,0 0.0405,0 0.06132,0 6.274192,3.5349 15.749945,5.7831 26.356771,5.7831 8.2586,0 15.82408,-1.3707 21.73564,-3.645 4.25872,1.3359 9.26621,2.1176 14.61995,2.1176 9.68656,0 18.21581,-2.5189 23.26921,-6.3532 2.1661,0.376 4.44572,0.5704 6.80901,0.5704 10.90508,0 20.16688,-4.2793 23.53503,-10.2427 2.80141,0.538 5.77822,0.8147 8.85376,0.8147 16.95555,0 30.69162,-8.7725 30.69162,-19.6094 0,-8.6017 -8.66164,-15.92192 -20.71326,-18.57093 0.94978,-2.02306 1.47221,-4.15904 1.47221,-6.37354 0,-4.1048 -1.76487,-7.9602 -4.8256,-11.28099 3.22193,-3.54578 5.13231,-7.97573 5.13231,-12.76745 0,-11.67694 -11.35176,-21.13658 -25.35485,-21.13658 -9.21962,0 -17.27743,4.10632 -21.71521,10.24248 -4.82826,-2.64747 -11.08072,-4.29697 -17.95287,-4.4391 -9.14477,-6.19898 -22.00614,-10.0592 -36.25337,-10.0592 -5.6793,0 -11.12337,0.62109 -16.21482,1.7512 -4.992308,-4.83574 -11.961137,-7.83967 -19.670453,-7.83967 z"
         style="fill:#ffffff;fill-opacity:1;stroke:#f2f2f2;stroke-width:1.5862323;stroke-linecap:round;stroke-linejoin:round;stroke-miterlimit:4;stroke-opacity:1;stroke-dasharray:none" />
    </g>
    <g
       transform="matrix(1.9428446,-0.29683407,0.29683408,1.9428446,57.807742,-953.75708)"
       id="layer1-0"
       inkscape:label="Layer 1">
      <g
         transform="translate(-233.14285,510.28571)"
         id="g3758">
        <path
           style="fill:#ffd42a;fill-opacity:1;stroke:#000000;stroke-width:1.20000005;stroke-miterlimit:4;stroke-dasharray:none"
           d="m 244.24525,501.28948 c -4.6767,-0.30281 -5.4916,-6.75383 -4.9814,-14.61349 0.5101,-7.85979 2.1522,-14.1516 6.8289,-13.84879 4.6768,0.3028 10.6171,7.08575 10.1068,14.94541 -0.5101,7.85966 -7.2776,13.81967 -11.9543,13.51687 z"
           id="path3963-5"
           sodipodi:nodetypes="csssc" />
        <path
           sodipodi:nodetypes="cssccc"
           id="path3965-1"
           d="m 279.04055,500.9931 c -23.6453,-1.53116 -36.0401,-6.53851 -34.9551,-23.25474 0.7459,-11.4904 13.0624,-17.59325 41.3834,-15.75928 16.0261,1.03775 26.0115,3.77824 34.6247,7.00987 25.7889,-12.00373 43.1973,22.15371 6.3329,22.7539 -6.6887,5.37961 -16.159,11.2723 -47.3859,9.25025 z"
           style="fill:#1a1a1a;fill-opacity:1;stroke:#000000;stroke-width:1.20000005;stroke-miterlimit:4;stroke-dasharray:none" />
        <path
           transform="matrix(-0.08165698,1.2579904,-1.2595015,-0.08155902,707.99845,231.13659)"
           d="m 214.10714,278.61218 c 0,1.57796 -1.27918,2.85715 -2.85714,2.85715 -1.57796,0 -2.85714,-1.27919 -2.85714,-2.85715 0,-1.57795 1.27918,-2.85714 2.85714,-2.85714 1.57796,0 2.85714,1.27919 2.85714,2.85714 z"
           sodipodi:ry="2.8571429"
           sodipodi:rx="2.8571429"
           sodipodi:cy="278.61218"
           sodipodi:cx="211.25"
           id="path3967-1"
           style="fill:#f9f9f9;fill-opacity:1;stroke:#000000;stroke-width:0.95133269;stroke-miterlimit:4;stroke-dasharray:none"
           sodipodi:type="arc" />
        <path
           sodipodi:nodetypes="csss"
           id="path3969-6"
           d="m 352.26075,480.00611 c -5.2036,-2.25666 -7.7808,-3.71382 -11.9017,3.19709 -2.979,4.996 0.8607,4.58202 7.0721,4.39153 14.8293,-0.45496 15.5556,-2.93689 4.8296,-7.58862 z"
           style="fill:#ffd42a;fill-opacity:1;stroke:#000000;stroke-width:1.20000005;stroke-miterlimit:4;stroke-dasharray:none" />
        <path
           style="fill:#f9f9f9;fill-opacity:1;stroke:#000000;stroke-width:1.20000005;stroke-linecap:round;stroke-linejoin:round;stroke-miterlimit:4;stroke-opacity:1;stroke-dasharray:none"
           d="m 288.19535,483.08444 c -17.2853,-1.11931 -32.761,1.12449 -42.2516,5.47531 4.2795,8.26293 15.6193,11.31505 33.1043,12.44735 30.5883,1.9807 40.2707,-3.63541 46.9417,-8.92199 -9.0482,-4.59955 -22.5268,-8.01208 -37.7944,-9.00067 z"
           id="path3971-1" />
        <path
           sodipodi:nodetypes="czccsscscsscc"
           id="path3973-9"
           d="m 323.04395,456.82386 c 0,0 1.0982,7.40507 1.0982,11.12733 0,3.72227 -1.0982,11.12747 -1.0982,11.12747 0,0.71327 -0.6728,1.28749 -1.5085,1.28749 0,0 -28.4834,2.41789 -44.6911,-1.16659 -4.5406,-1.0041 -7.4871,-3.21083 -13.6678,-4.02709 l -27.3355,-2.44411 c 0,0 -1.0982,-3.18474 -1.0982,-4.77717 0,-1.5923 1.0982,-4.77703 1.0982,-4.77703 l 27.3355,-2.44411 c 6.1807,-0.81626 9.1272,-3.023 13.6678,-4.02721 16.2077,-3.58436 44.6911,-1.16647 44.6911,-1.16647 0.8357,0 1.5085,0.57421 1.5085,1.28749 z"
           style="fill:#b7c8c4;fill-opacity:1;stroke:#000000;stroke-width:1.20000005;stroke-linecap:round;stroke-linejoin:round;stroke-miterlimit:4;stroke-opacity:1;stroke-dasharray:none" />
      </g>
    </g>
    <g
       transform="matrix(0.57373303,0,0,0.57373303,28.040684,422.02511)"
       id="layer1-4"
       inkscape:label="Layer 1">
      <path
         d="m 49.146012,877.78869 0,15.00312 24.797258,0 0,7.84568 -24.797258,0 0,17.7904 -10.145909,0 0,-48.48487 35.73421,0 0,7.84567 -25.588301,0"
         style="font-size:36px;font-style:normal;font-weight:bold;text-align:center;text-anchor:middle;fill:#000000;fill-opacity:1;stroke:#000000;stroke-width:1.74297094;stroke-linecap:round;stroke-linejoin:round;font-family:Liberation Sans;-inkscape-font-specification:Liberation Sans"
         id="path2825" />
      <path
         d="m 82.266357,918.42789 0,-51.06568 9.664396,0 0,51.06568 -9.664396,0"
         style="font-size:36px;font-style:normal;font-weight:bold;text-align:center;text-anchor:middle;fill:#000000;fill-opacity:1;stroke:#000000;stroke-width:1.74297094;stroke-linecap:round;stroke-linejoin:round;font-family:Liberation Sans;-inkscape-font-specification:Liberation Sans"
         id="path2827" />
      <path
         d="m 120.95836,920.3893 c -0.89424,2.17935 -1.79991,4.06048 -2.71704,5.64337 -0.91716,1.58289 -1.93749,2.89051 -3.06096,3.92284 -1.10059,1.05526 -2.3502,1.83523 -3.74883,2.33994 -1.37573,0.50468 -2.98072,0.75702 -4.81501,0.75704 -1.00887,-2e-5 -2.04065,-0.0345 -3.09536,-0.10317 -1.05471,-0.0689 -2.05211,-0.18362 -2.99219,-0.3441 l 0,-6.88218 c 0.45858,0.0687 1.00887,0.12607 1.65086,0.17207 0.66494,0.0689 1.22668,0.10317 1.68526,0.10317 0.94007,-2e-5 1.77696,-0.10317 2.51069,-0.30971 0.7337,-0.20647 1.39862,-0.55058 1.99479,-1.03232 0.59613,-0.48177 1.14641,-1.12409 1.65086,-1.92702 0.52733,-0.8029 1.03175,-1.8123 1.51327,-3.02814 l 0.61908,-1.65172 -14.720165,-36.854 10.214705,0 5.84679,17.44629 c 0.0918,0.25236 0.22927,0.67676 0.41272,1.2732 0.20632,0.59646 0.42414,1.28469 0.65345,2.06464 0.2522,0.75706 0.50441,1.55999 0.75665,2.40876 0.25218,0.84881 0.49294,1.66321 0.72225,2.44318 0.22927,0.75704 0.42416,1.4338 0.58468,2.03024 0.16044,0.59645 0.27511,1.02086 0.34393,1.2732 0.0687,-0.25234 0.17198,-0.66527 0.30953,-1.23879 0.16044,-0.59644 0.33244,-1.26173 0.51589,-1.99583 0.20634,-0.75704 0.42416,-1.54847 0.65347,-2.37434 0.22925,-0.82585 0.44708,-1.61731 0.65346,-2.37437 0.20634,-0.75702 0.38977,-1.43376 0.55028,-2.03022 0.18334,-0.61938 0.32098,-1.06673 0.41272,-1.34203 l 5.50287,-17.58393 10.11151,0 -14.72016,39.19393"
         style="font-size:36px;font-style:normal;font-weight:bold;text-align:center;text-anchor:middle;fill:#000000;fill-opacity:1;stroke:#000000;stroke-width:1.74297094;stroke-linecap:round;stroke-linejoin:round;font-family:Liberation Sans;-inkscape-font-specification:Liberation Sans"
         id="path2829" />
      <path
         d="m 141.00942,874.48525 0,-7.12304 9.66439,0 0,7.12304 -9.66439,0 m 0,43.94264 0,-37.23252 9.66439,0 0,37.23252 -9.66439,0"
         style="font-size:36px;font-style:normal;font-weight:bold;text-align:center;text-anchor:middle;fill:#000000;fill-opacity:1;stroke:#000000;stroke-width:1.74297094;stroke-linecap:round;stroke-linejoin:round;font-family:Liberation Sans;-inkscape-font-specification:Liberation Sans"
         id="path2831" />
      <path
         d="m 184.65399,918.42789 0,-20.88737 c -4e-5,-1.44524 -0.11465,-2.76432 -0.34392,-3.95726 -0.22933,-1.21582 -0.60764,-2.24814 -1.13497,-3.09697 -0.5274,-0.87172 -1.21525,-1.54846 -2.06358,-2.03024 -0.84839,-0.48173 -1.88017,-0.72259 -3.09536,-0.72263 -1.16938,4e-5 -2.23556,0.26385 -3.19854,0.79146 -0.94008,0.5047 -1.75405,1.2388 -2.44189,2.20229 -0.68787,0.94059 -1.22669,2.07615 -1.61646,3.40666 -0.36688,1.30764 -0.5503,2.75289 -0.55028,4.33578 l 0,19.95828 -9.66442,0 0,-28.90511 c 0,-0.80289 -0.0117,-1.62874 -0.0344,-2.47757 0,-0.84877 -0.0229,-1.6517 -0.0687,-2.40876 -0.0229,-0.77994 -0.0458,-1.46816 -0.0689,-2.06466 -0.0229,-0.61936 -0.0573,-1.07816 -0.10311,-1.37642 l 9.21729,0 c 0.0458,0.27532 0.0918,0.72267 0.13755,1.34201 0.0458,0.5965 0.0918,1.26177 0.13755,1.99583 0.0458,0.73413 0.0802,1.46823 0.10311,2.20229 0.0458,0.73414 0.0687,1.35354 0.0689,1.85819 l 0.13755,0 c 1.30691,-2.84458 2.9463,-4.90924 4.9182,-6.19395 1.97183,-1.28463 4.32201,-1.92696 7.05053,-1.92699 2.24697,3e-5 4.13858,0.36708 5.67483,1.10114 1.55911,0.73412 2.82018,1.74351 3.78323,3.02815 0.98587,1.28471 1.69666,2.79877 2.13235,4.54222 0.43561,1.74351 0.65341,3.62464 0.65345,5.64339 l 0,23.64024 -9.63,0"
         style="font-size:36px;font-style:normal;font-weight:bold;text-align:center;text-anchor:middle;fill:#000000;fill-opacity:1;stroke:#000000;stroke-width:1.74297094;stroke-linecap:round;stroke-linejoin:round;font-family:Liberation Sans;-inkscape-font-specification:Liberation Sans"
         id="path2833" />
      <path
         d="m 219.18446,933.36218 c -2.45339,0 -4.62013,-0.25236 -6.50026,-0.75702 -1.85722,-0.48179 -3.45077,-1.17 -4.78062,-2.06466 -1.30693,-0.87175 -2.36164,-1.92701 -3.16415,-3.1658 -0.77958,-1.21586 -1.3184,-2.55787 -1.61646,-4.02607 l 9.6644,-1.13556 c 0.34392,1.49114 1.07764,2.6611 2.20114,3.50991 1.14642,0.84879 2.63678,1.2732 4.47108,1.2732 1.14642,0 2.18966,-0.16052 3.12976,-0.48174 0.96296,-0.32119 1.77694,-0.87176 2.4419,-1.65172 0.68783,-0.75704 1.21519,-1.76644 1.58206,-3.02817 0.38975,-1.26173 0.58465,-2.82167 0.58469,-4.67986 -4e-5,-0.64235 -4e-5,-1.29614 0,-1.96143 -4e-5,-0.66527 0.0117,-1.27318 0.0344,-1.82377 0.0229,-0.64233 0.0344,-1.26171 0.0344,-1.85819 l -0.0689,0 c -1.12353,2.40878 -2.70561,4.15225 -4.74622,5.23045 -2.01773,1.07821 -4.42524,1.61731 -7.22251,1.61731 -2.36167,0 -4.40229,-0.4588 -6.12193,-1.37642 -1.69674,-0.94057 -3.10684,-2.23671 -4.23032,-3.88843 -1.12352,-1.67466 -1.96041,-3.65902 -2.5107,-5.95308 -0.52735,-2.31697 -0.79104,-4.86337 -0.79102,-7.6392 -2e-5,-2.86754 0.2866,-5.45983 0.85982,-7.77686 0.57321,-2.33989 1.4445,-4.34719 2.61386,-6.02189 1.19228,-1.67462 2.68264,-2.95929 4.47106,-3.85401 1.81136,-0.91758 3.95518,-1.37639 6.43148,-1.37642 2.47627,3e-5 4.68889,0.52766 6.63783,1.58289 1.97183,1.0553 3.50804,2.76437 4.60865,5.12721 l 0.17198,0 c -4e-5,-0.48173 0.0117,-1.0323 0.0344,-1.65172 0.0458,-0.64231 0.0918,-1.25022 0.13754,-1.82377 0.0458,-0.59642 0.0918,-1.12405 0.13755,-1.58289 0.0687,-0.45879 0.126,-0.76848 0.17198,-0.9291 l 9.14851,0 c -0.0458,0.82589 -0.0918,1.98439 -0.13755,3.47549 -0.046,1.49116 -0.0689,3.20024 -0.0687,5.12722 l 0,27.49425 c -4e-5,2.70698 -0.38983,5.05838 -1.16937,7.05423 -0.77962,2.01875 -1.92603,3.69341 -3.43928,5.02397 -1.4904,1.33053 -3.33616,2.32846 -5.53726,2.99374 -2.17826,0.66525 -4.666,0.99791 -7.46325,0.99791 m 8.08233,-34.06672 c -4e-5,-2.33991 -0.22933,-4.28985 -0.68788,-5.84984 -0.4586,-1.55993 -1.05473,-2.81018 -1.78842,-3.75079 -0.73374,-0.94052 -1.58211,-1.60579 -2.54507,-1.99582 -0.9401,-0.38996 -1.89164,-0.58495 -2.85462,-0.58499 -1.23816,4e-5 -2.33873,0.24092 -3.30172,0.72263 -0.94007,0.48178 -1.74258,1.22735 -2.40749,2.2367 -0.66496,1.00942 -1.16938,2.29409 -1.51329,3.85402 -0.34394,1.55998 -0.51591,3.41817 -0.51589,5.57456 -2e-5,4.01461 0.64197,7.04276 1.92599,9.08445 1.28399,2.04173 3.19853,3.06258 5.74362,3.06258 0.96297,0 1.91451,-0.18343 2.85461,-0.55058 0.96298,-0.38999 1.8228,-1.05526 2.57946,-1.99582 0.75663,-0.96351 1.36422,-2.23671 1.82282,-3.81962 0.45855,-1.58287 0.68784,-3.5787 0.68788,-5.98748"
         style="font-size:36px;font-style:normal;font-weight:bold;text-align:center;text-anchor:middle;fill:#000000;fill-opacity:1;stroke:#000000;stroke-width:1.74297094;stroke-linecap:round;stroke-linejoin:round;font-family:Liberation Sans;-inkscape-font-specification:Liberation Sans"
         id="path2835" />
      <path
         d="m 244.8123,961.29021 c -4e-5,2.08764 -0.355,4.10639 -1.06487,6.05631 -0.68706,1.92703 -1.75192,3.63611 -3.1946,5.12721 -1.44276,1.49116 -3.27479,2.68407 -5.49609,3.57873 -2.22136,0.87176 -4.8549,1.30764 -7.90063,1.30762 l -12.02268,0 0,17.06777 -10.13341,0 0,-48.48486 21.7439,0 c 3.09151,3e-5 5.77086,0.37855 8.03803,1.13556 2.2671,0.73413 4.14491,1.77792 5.63348,3.13138 1.48849,1.35354 2.5877,2.97085 3.29765,4.85192 0.73277,1.88117 1.09918,3.9573 1.09922,6.22836 m -10.20211,0.17207 c -3e-5,-2.50047 -0.75575,-4.39307 -2.26714,-5.67778 -1.48854,-1.30756 -3.73278,-1.96138 -6.7327,-1.96142 l -10.47692,0 0,15.72575 10.75172,0 c 1.5114,4e-5 2.80528,-0.19498 3.88161,-0.58497 1.0992,-0.38997 2.00376,-0.94055 2.71369,-1.65172 0.73279,-0.71114 1.27095,-1.55993 1.61449,-2.54642 0.34346,-1.00935 0.51522,-2.11048 0.51525,-3.30344"
         style="font-size:36px;font-style:normal;font-weight:bold;text-align:center;text-anchor:middle;fill:#000000;fill-opacity:1;stroke:#000000;stroke-width:1.74297094;stroke-linecap:round;stroke-linejoin:round;font-family:Liberation Sans;-inkscape-font-specification:Liberation Sans"
         id="path2837" />
      <path
         d="m 266.82797,995.11606 c -2.67938,0 -5.09535,-0.38999 -7.24798,-1.16997 -2.12974,-0.80291 -3.95032,-2.0073 -5.46173,-3.61313 -1.51143,-1.62878 -2.6679,-3.65902 -3.4694,-6.09072 -0.80152,-2.45463 -1.20228,-5.32219 -1.20226,-8.60271 -2e-5,-3.55575 0.46945,-6.5495 1.40836,-8.98123 0.9618,-2.43166 2.24422,-4.39307 3.84726,-5.88425 1.62593,-1.51404 3.49229,-2.60372 5.59913,-3.26903 2.10683,-0.66522 4.32816,-0.99788 6.66401,-0.99792 2.93123,4e-5 5.42736,0.51622 7.48842,1.5485 2.0839,1.00941 3.78998,2.43172 5.11823,4.26695 1.32818,1.83526 2.30146,4.03755 2.91979,6.60688 0.61828,2.54641 0.92743,5.36811 0.92747,8.46506 l 0,0.27528 -23.83928,0 c 0,1.55997 0.13738,3.01669 0.41221,4.37017 0.2748,1.33058 0.72134,2.48906 1.33968,3.47549 0.6183,0.96353 1.4198,1.73203 2.40454,2.30554 0.98468,0.55057 2.17551,0.82587 3.57245,0.82585 1.69461,2e-5 3.08007,-0.35556 4.15641,-1.06673 1.07629,-0.7341 1.84346,-1.85817 2.30149,-3.37227 l 9.10289,0.79146 c -0.41223,1.05528 -0.99619,2.17937 -1.75187,3.37226 -0.73285,1.19292 -1.71757,2.29405 -2.95415,3.30344 -1.23665,0.98646 -2.78241,1.81231 -4.63733,2.47757 -1.83205,0.64235 -4.06483,0.96351 -6.69834,0.96351 m 0,-32.51824 c -0.98475,4e-5 -1.91221,0.17208 -2.7824,0.51616 -0.84733,0.3212 -1.59159,0.84883 -2.23279,1.58291 -0.61832,0.71118 -1.12214,1.64027 -1.51143,2.78728 -0.38931,1.14706 -0.60686,2.52348 -0.65265,4.12929 l 14.42722,0 c -0.1833,-3.00518 -0.90458,-5.25336 -2.16408,-6.74451 -1.25954,-1.51405 -2.95417,-2.27109 -5.08387,-2.27113"
         style="font-size:36px;font-style:normal;font-weight:bold;text-align:center;text-anchor:middle;fill:#000000;fill-opacity:1;stroke:#000000;stroke-width:1.74297094;stroke-linecap:round;stroke-linejoin:round;font-family:Liberation Sans;-inkscape-font-specification:Liberation Sans"
         id="path2839" />
      <path
         d="m 314.85002,994.42785 0,-20.88737 c -4e-5,-1.44523 -0.11451,-2.76432 -0.34352,-3.95726 -0.22903,-1.21582 -0.60689,-2.24814 -1.13355,-3.09697 -0.52675,-0.87172 -1.21375,-1.54846 -2.06104,-2.03024 -0.84735,-0.48172 -1.87785,-0.72259 -3.09155,-0.72263 -1.16794,4e-5 -2.23281,0.26385 -3.19461,0.79146 -0.93893,0.50471 -1.75188,1.2388 -2.43887,2.20229 -0.68705,0.94059 -1.2252,2.07615 -1.61449,3.40667 -0.36641,1.30763 -0.54961,2.75288 -0.54961,4.33577 l 0,19.95828 -9.65249,0 0,-28.90511 c 0,-0.80289 -0.0117,-1.62874 -0.0344,-2.47757 0,-0.84877 -0.0229,-1.6517 -0.0686,-2.40876 -0.0229,-0.77994 -0.0457,-1.46815 -0.0688,-2.06465 -0.0229,-0.61937 -0.0572,-1.07817 -0.10298,-1.37643 l 9.20593,0 c 0.0457,0.27532 0.0917,0.72267 0.13738,1.34201 0.0457,0.5965 0.0917,1.26177 0.13737,1.99583 0.0457,0.73414 0.0801,1.46823 0.10299,2.20229 0.0457,0.73414 0.0686,1.35354 0.0688,1.85819 l 0.13737,0 c 1.30531,-2.84458 2.94268,-4.90924 4.91213,-6.19395 1.9694,-1.28463 4.31669,-1.92695 7.04187,-1.92699 2.2442,4e-5 4.13348,0.36709 5.66783,1.10114 1.5572,0.73412 2.81671,1.74352 3.77855,3.02815 0.98469,1.28471 1.6946,2.79877 2.12975,4.54222 0.43506,1.74351 0.65261,3.62464 0.65265,5.64339 l 0,23.64024 -9.61814,0"
         style="font-size:36px;font-style:normal;font-weight:bold;text-align:center;text-anchor:middle;fill:#000000;fill-opacity:1;stroke:#000000;stroke-width:1.74297094;stroke-linecap:round;stroke-linejoin:round;font-family:Liberation Sans;-inkscape-font-specification:Liberation Sans"
         id="path2841" />
      <path
         d="m 349.33795,1009.3621 c -2.45035,0 -4.61443,-0.2523 -6.49225,-0.757 -1.85495,-0.4818 -3.44652,-1.17 -4.77472,-2.0646 -1.30532,-0.8718 -2.35876,-1.9271 -3.16026,-3.1658 -0.77861,-1.2159 -1.31677,-2.5579 -1.61447,-4.0261 l 9.6525,-1.13556 c 0.3435,1.49113 1.07631,2.66106 2.19843,3.50986 1.14501,0.8488 2.63353,1.2732 4.46558,1.2732 1.14498,0 2.18696,-0.1605 3.1259,-0.4817 0.96178,-0.3212 1.77475,-0.8718 2.43887,-1.6517 0.68699,-0.7571 1.2137,-1.76646 1.58014,-3.02818 0.38927,-1.26173 0.58392,-2.82168 0.58396,-4.67987 -4e-5,-0.64234 -4e-5,-1.29614 0,-1.96143 -4e-5,-0.66527 0.0117,-1.27318 0.0344,-1.82377 0.0229,-0.64233 0.0344,-1.26171 0.0344,-1.85819 l -0.0686,0 c -1.12216,2.40878 -2.70228,4.15225 -4.74037,5.23046 -2.01527,1.0782 -4.41979,1.6173 -7.21362,1.6173 -2.35876,0 -4.39689,-0.4588 -6.11441,-1.37642 -1.69463,-0.94057 -3.10299,-2.23671 -4.22511,-3.88843 -1.12212,-1.67466 -1.95798,-3.65902 -2.50759,-5.95308 -0.5267,-2.31697 -0.79006,-4.86337 -0.79006,-7.6392 0,-2.86754 0.28626,-5.45983 0.85877,-7.77685 0.57249,-2.3399 1.4427,-4.34719 2.61063,-6.0219 1.19081,-1.67462 2.67933,-2.95929 4.46558,-3.85401 1.8091,-0.91758 3.9503,-1.37638 6.42355,-1.37642 2.47321,4e-5 4.68309,0.52767 6.62965,1.58289 1.96941,1.0553 3.50372,2.76438 4.60298,5.12721 l 0.17177,0 c -4e-5,-0.48172 0.0117,-1.0323 0.0344,-1.65172 0.0457,-0.64231 0.0916,-1.25022 0.13738,-1.82377 0.0457,-0.59642 0.0917,-1.12405 0.13738,-1.58289 0.0686,-0.45878 0.12585,-0.76848 0.17177,-0.9291 l 9.13724,0 c -0.0459,0.82589 -0.0916,1.9844 -0.13738,3.4755 -0.0459,1.49115 -0.0688,3.20023 -0.0688,5.12721 l 0,27.49425 c -4e-5,2.70698 -0.38933,5.05838 -1.16791,7.05421 -0.77866,2.0188 -1.92368,3.6934 -3.43507,5.024 -1.48854,1.3305 -3.33202,2.3284 -5.53042,2.9937 -2.17557,0.6653 -4.66025,0.9979 -7.45408,0.9979 m 8.07238,-34.06668 c -2e-5,-2.33991 -0.22903,-4.28985 -0.68701,-5.84984 -0.45803,-1.55992 -1.05345,-2.81018 -1.78622,-3.75078 -0.73285,-0.94053 -1.58016,-1.6058 -2.54194,-1.99583 -0.93893,-0.38995 -1.8893,-0.58495 -2.8511,-0.58499 -1.23664,4e-5 -2.33585,0.24092 -3.29765,0.72263 -0.93894,0.48178 -1.74044,1.22735 -2.40454,2.23671 -0.66413,1.00941 -1.16793,2.29408 -1.51141,3.85401 -0.34353,1.55999 -0.51528,3.41817 -0.51528,5.57456 0,4.01462 0.6412,7.04276 1.92364,9.08445 1.2824,2.04173 3.19459,3.06258 5.73655,3.06258 0.96178,0 1.91215,-0.18343 2.85108,-0.55057 0.9618,-0.39 1.82056,-1.05527 2.5763,-1.99583 0.75567,-0.96351 1.36254,-2.23671 1.82057,-3.81962 0.45798,-1.58287 0.68699,-3.5787 0.68701,-5.98748"
         style="font-size:36px;font-style:normal;font-weight:bold;text-align:center;text-anchor:middle;fill:#000000;fill-opacity:1;stroke:#000000;stroke-width:1.74297094;stroke-linecap:round;stroke-linejoin:round;font-family:Liberation Sans;-inkscape-font-specification:Liberation Sans"
         id="path2843" />
      <path
         d="m 385.88693,957.19533 0,20.88737 c -2e-5,1.44528 0.11451,2.77581 0.3435,3.99166 0.22899,1.19292 0.60685,2.22525 1.13357,3.09697 0.52669,0.84881 1.20224,1.51408 2.02668,1.99582 0.84729,0.48177 1.8778,0.72265 3.09155,0.72263 1.16789,2e-5 2.22132,-0.25233 3.16025,-0.75702 0.96179,-0.52763 1.78621,-1.26173 2.47323,-2.20229 0.68699,-0.96351 1.2137,-2.09905 1.58012,-3.40669 0.38929,-1.33053 0.58394,-2.78726 0.58396,-4.37017 l 0,-19.95828 9.65252,0 0,28.90509 c -4e-5,0.77999 -4e-5,1.60586 0,2.47759 0.0229,0.8488 0.0457,1.66319 0.0686,2.44316 0.0457,0.75704 0.0801,1.44527 0.10298,2.06465 0.0457,0.59646 0.0801,1.04379 0.10299,1.34203 l -9.20595,0 c -0.0229,-0.2753 -0.0688,-0.71115 -0.13738,-1.30761 -0.0459,-0.61941 -0.0917,-1.29615 -0.13738,-2.03024 -0.0229,-0.7341 -0.0573,-1.4682 -0.10298,-2.2023 -0.0229,-0.73409 -0.0344,-1.35348 -0.0344,-1.85818 l -0.17178,0 c -1.28245,2.82169 -2.91983,4.87488 -4.91214,6.15955 -1.96944,1.28467 -4.31673,1.92699 -7.04185,1.92699 -2.22135,0 -4.11062,-0.36705 -5.66783,-1.10114 -1.55724,-0.7341 -2.82821,-1.732 -3.81291,-2.99375 -0.96184,-1.28465 -1.6603,-2.79874 -2.09539,-4.54223 -0.43512,-1.74347 -0.65267,-3.6246 -0.65265,-5.64337 l 0,-23.64024 9.65249,0"
         style="font-size:36px;font-style:normal;font-weight:bold;text-align:center;text-anchor:middle;fill:#000000;fill-opacity:1;stroke:#000000;stroke-width:1.74297094;stroke-linecap:round;stroke-linejoin:round;font-family:Liberation Sans;-inkscape-font-specification:Liberation Sans"
         id="path2845" />
      <path
         d="m 419.79091,950.48521 0,-7.12304 9.65249,0 0,7.12304 -9.65249,0 m 0,43.94264 0,-37.23252 9.65249,0 0,37.23252 -9.65249,0"
         style="font-size:36px;font-style:normal;font-weight:bold;text-align:center;text-anchor:middle;fill:#000000;fill-opacity:1;stroke:#000000;stroke-width:1.74297094;stroke-linecap:round;stroke-linejoin:round;font-family:Liberation Sans;-inkscape-font-specification:Liberation Sans"
         id="path2847" />
      <path
         d="m 463.38174,994.42785 0,-20.88737 c -4e-5,-1.44523 -0.11452,-2.76432 -0.3435,-3.95726 -0.22905,-1.21582 -0.60689,-2.24814 -1.13358,-3.09697 -0.52674,-0.87172 -1.21375,-1.54846 -2.06103,-2.03024 -0.84735,-0.48172 -1.87786,-0.72259 -3.09155,-0.72263 -1.16794,4e-5 -2.23281,0.26385 -3.19461,0.79146 -0.93891,0.50471 -1.75189,1.2388 -2.43887,2.20229 -0.68703,0.94059 -1.22518,2.07615 -1.61447,3.40667 -0.36643,1.30763 -0.54963,2.75288 -0.54961,4.33577 l 0,19.95828 -9.65252,0 0,-28.90511 c 0,-0.80289 -0.0117,-1.62874 -0.0344,-2.47757 0,-0.84877 -0.0229,-1.6517 -0.0686,-2.40876 -0.0229,-0.77994 -0.0457,-1.46815 -0.0688,-2.06465 -0.0229,-0.61937 -0.0573,-1.07817 -0.10298,-1.37643 l 9.20595,0 c 0.0457,0.27532 0.0917,0.72267 0.13737,1.34201 0.0457,0.5965 0.0917,1.26177 0.13738,1.99583 0.0457,0.73414 0.0801,1.46823 0.10299,2.20229 0.0457,0.73414 0.0686,1.35354 0.0688,1.85819 l 0.13738,0 c 1.3053,-2.84458 2.94268,-4.90924 4.91214,-6.19395 1.96941,-1.28463 4.31669,-1.92695 7.04185,-1.92699 2.2442,4e-5 4.13349,0.36709 5.66784,1.10114 1.5572,0.73412 2.81671,1.74352 3.77857,3.02815 0.98467,1.28471 1.69457,2.79877 2.12973,4.54222 0.43507,1.74351 0.65261,3.62464 0.65265,5.64339 l 0,23.64024 -9.61814,0"
         style="font-size:36px;font-style:normal;font-weight:bold;text-align:center;text-anchor:middle;fill:#000000;fill-opacity:1;stroke:#000000;stroke-width:1.74297094;stroke-linecap:round;stroke-linejoin:round;font-family:Liberation Sans;-inkscape-font-specification:Liberation Sans"
         id="path2849" />
      <text
         transform="scale(0.99852576,1.0014764)"
         id="text2816"
         y="857.82965"
         x="61.896297"
         style="font-size:27.19388008px;font-style:normal;font-weight:normal;text-align:center;text-anchor:middle;fill:#000000;fill-opacity:1;stroke:#000000;stroke-width:1.74297094;stroke-linecap:round;stroke-linejoin:round;font-family:Liberation Sans;-inkscape-font-specification:Liberation Sans"
         xml:space="preserve"><tspan
           y="857.82965"
           x="61.896297"
           id="tspan2818"
           sodipodi:role="line"
           style="stroke-width:1.74297094">The</tspan></text>
    </g>
    <g
       transform="matrix(0.57845443,0,0,0.57845443,-2.2335886,445.1874)"
       id="layer1-93"
       inkscape:label="Layer 1">
      <path
         id="path4300"
         d="m 61.864353,937.86219 c -16.708924,0 -30.243891,12.52131 -30.243891,27.97863 0,0.13614 0.01824,0.27155 0.02039,0.40725 -13.695828,4.54826 -23.140851,14.09458 -23.140851,25.14808 0,7.15982 3.971568,13.68275 10.481564,18.63215 -0.280951,1.2117 -0.447757,2.4526 -0.447757,3.7264 0,11.6771 12.319084,21.1571 27.516649,21.1571 11.63163,0 21.576433,-5.5614 25.603509,-13.3987 4.983776,2.1297 10.72343,3.3598 16.831559,3.3598 2.706876,0 5.32777,-0.262 7.856085,-0.7127 -0.754191,1.0435 -1.180448,2.1528 -1.180448,3.2987 0,6.3006 12.260578,11.4033 27.374178,11.4033 9.46162,0 17.79883,-2.0069 22.71345,-5.05 2.87526,0.312 5.86153,0.4887 8.91442,0.4887 13.98607,0 26.40133,-3.4492 34.35511,-8.7967 3.90494,0.9544 8.21738,1.4864 12.76104,1.4864 17.4646,0 31.62786,-7.8309 31.62786,-17.4917 0,-0.8493 -0.11416,-1.6876 -0.32564,-2.5047 8.84788,-3.1766 14.91842,-9.71563 14.91842,-17.26772 0,-10.66894 -12.12322,-19.32438 -27.06889,-19.32438 -3.66544,0 -7.15105,0.52348 -10.3391,1.46613 -0.0372,-16.60514 -15.1274,-30.05565 -33.74452,-30.05565 -11.09584,0 -20.93744,4.78058 -27.08925,12.15666 -3.03276,-1.15796 -6.35198,-1.81229 -9.85063,-1.81229 -9.157,0 -17.18893,4.37931 -21.65512,10.95523 -5.30572,-4.59171 -14.24935,-7.61573 -24.402705,-7.61573 -1.117059,0 -2.232678,0.0511 -3.317466,0.12218 -4.41651,-10.39568 -15.363154,-17.75644 -28.16793,-17.75644 z"
         style="fill:#ffffff;fill-opacity:1;stroke:#f2f2f2;stroke-width:1.72874463;stroke-linecap:round;stroke-linejoin:round;stroke-miterlimit:4;stroke-opacity:1;stroke-dasharray:none" />
    </g>
  </g>
</svg>
