<?xml version="1.0" encoding="UTF-8" standalone="no"?>
<!-- Created with Inkscape (http://www.inkscape.org/) -->

<svg
   xmlns:dc="http://purl.org/dc/elements/1.1/"
   xmlns:cc="http://creativecommons.org/ns#"
   xmlns:rdf="http://www.w3.org/1999/02/22-rdf-syntax-ns#"
   xmlns:svg="http://www.w3.org/2000/svg"
   xmlns="http://www.w3.org/2000/svg"
   xmlns:sodipodi="http://sodipodi.sourceforge.net/DTD/sodipodi-0.dtd"
   xmlns:inkscape="http://www.inkscape.org/namespaces/inkscape"
   width="256"
   height="128"
   id="svg2865"
   version="1.1"
   inkscape:version="0.47 r22583"
   sodipodi:docname="cloud1.svg">
  <defs
     id="defs2867">
    <inkscape:perspective
       sodipodi:type="inkscape:persp3d"
       inkscape:vp_x="0 : 526.18109 : 1"
       inkscape:vp_y="0 : 1000 : 0"
       inkscape:vp_z="744.09448 : 526.18109 : 1"
       inkscape:persp3d-origin="372.04724 : 350.78739 : 1"
       id="perspective2873" />
    <inkscape:perspective
       id="perspective2860"
       inkscape:persp3d-origin="0.5 : 0.33333333 : 1"
       inkscape:vp_z="1 : 0.5 : 1"
       inkscape:vp_y="0 : 1000 : 0"
       inkscape:vp_x="0 : 0.5 : 1"
       sodipodi:type="inkscape:persp3d" />
  </defs>
  <sodipodi:namedview
     id="base"
     pagecolor="#ffffff"
     bordercolor="#666666"
     borderopacity="1.0"
     inkscape:pageopacity="0.0"
     inkscape:pageshadow="2"
     inkscape:zoom="5.515625"
     inkscape:cx="128"
     inkscape:cy="64"
     inkscape:document-units="px"
     inkscape:current-layer="layer1"
     showgrid="false"
     inkscape:window-width="1680"
     inkscape:window-height="966"
     inkscape:window-x="0"
     inkscape:window-y="31"
     inkscape:window-maximized="1" />
  <metadata
     id="metadata2870">
    <rdf:RDF>
      <cc:Work
         rdf:about="">
        <dc:format>image/svg+xml</dc:format>
        <dc:type
           rdf:resource="http://purl.org/dc/dcmitype/StillImage" />
      </cc:Work>
    </rdf:RDF>
  </metadata>
  <g
     inkscape:label="Layer 1"
     inkscape:groupmode="layer"
     id="layer1"
     transform="translate(0,-924.36218)">
    <path
       style="fill:#ffffff;fill-opacity:1;stroke:#f2f2f2;stroke-width:1;stroke-linecap:round;stroke-linejoin:round;stroke-miterlimit:4;stroke-opacity:1;stroke-dasharray:none"
       d="m 186.60341,933.8728 c -8.24726,0 -15.35418,3.6208 -18.61857,8.82851 -1.59773,-0.35675 -3.29647,-0.54884 -5.06212,-0.54884 -8.31453,0 -15.21036,4.27212 -16.50284,9.86348 -10.2787,1.32351 -18.10139,7.96521 -18.10139,15.97914 0,3.99974 1.95891,7.6612 5.18749,10.49071 -2.17663,2.232 -3.75089,4.80957 -4.5606,7.5897 -2.6913,-0.54901 -5.57549,-0.84678 -8.57269,-0.84678 -8.19608,0 -15.5325,2.23253 -20.452231,5.73931 0.380401,-1.30036 0.579871,-2.66177 0.579871,-4.07712 0,-6.00149 -3.651319,-11.18866 -8.964496,-13.67398 3.28749,-2.61932 5.328556,-6.2909 5.328556,-10.34959 0,-7.95957 -7.860561,-14.41102 -17.552865,-14.41102 -5.189218,0 -9.85768,1.84254 -13.070626,4.78276 -1.439678,-0.64642 -2.94142,-1.16173 -4.497927,-1.52107 -3.999169,-6.23096 -12.704798,-10.55344 -22.818716,-10.55344 -13.898416,0 -25.169546,8.15771 -25.169546,18.22155 0,2.3338 0.604119,4.56657 1.708265,6.61744 -7.0453899,1.83314 -11.97358,6.04212 -11.97358,10.9455 0,4.97235 5.0670183,9.23317 12.271355,11.02387 -0.534595,1.00343 -0.869096,2.05577 -0.971688,3.15192 -6.2084507,2.45792 -10.3123011,6.68777 -10.3123011,11.49425 0,6.7896 8.1810031,12.4302 18.9320271,13.5486 -0.0312,0.3968 -0.047,0.7881 -0.047,1.1918 0,9.5149 8.818959,17.2336 19.699962,17.2336 5.385961,0 10.266385,-1.8925 13.822872,-4.9553 3.013943,1.257 6.411704,1.9759 10.014537,1.9759 4.198302,0 8.116208,-0.9633 11.472062,-2.6345 4.652454,3.0933 10.627705,4.9554 17.161058,4.9554 10.216691,0 19.105181,-4.5466 23.633681,-11.2435 4.21716,2.8256 10.38964,4.6102 17.27076,4.6102 6.10631,0 11.64664,-1.4099 15.76625,-3.7007 5.25043,4.0594 13.65831,6.6802 23.13217,6.6802 4.18072,0 8.15312,-0.5216 11.73848,-1.4427 4.19523,8.1303 16.91827,14.0347 31.97128,14.0347 18.47027,0 33.4445,-8.8893 33.4445,-19.8681 0,-5.1741 -3.34172,-9.8715 -8.79213,-13.4074 1.38214,-1.845 2.16278,-3.936 2.16278,-6.147 0,-5.80509 -5.37403,-10.75728 -12.92959,-12.7018 2.3034,-2.31328 3.66732,-5.12871 3.66732,-8.1699 0,-7.86808 -9.04617,-14.25421 -20.20148,-14.25421 -2.06851,0 -4.06066,0.2198 -5.93977,0.62725 -1.43543,-3.9728 -5.13632,-7.18494 -9.90483,-8.6717 4.03988,-2.78326 6.58233,-6.75076 6.58233,-11.16501 0,-8.41702 -9.1924,-15.24212 -20.53058,-15.24212 z"
       id="path4365" />
  </g>
</svg>
