<?xml version="1.0" encoding="UTF-8" standalone="no"?>
<!-- Created with Inkscape (http://www.inkscape.org/) -->

<svg
   xmlns:dc="http://purl.org/dc/elements/1.1/"
   xmlns:cc="http://creativecommons.org/ns#"
   xmlns:rdf="http://www.w3.org/1999/02/22-rdf-syntax-ns#"
   xmlns:svg="http://www.w3.org/2000/svg"
   xmlns="http://www.w3.org/2000/svg"
   xmlns:sodipodi="http://sodipodi.sourceforge.net/DTD/sodipodi-0.dtd"
   xmlns:inkscape="http://www.inkscape.org/namespaces/inkscape"
   width="256"
   height="256"
   id="svg2849"
   version="1.1"
   inkscape:version="0.47 r22583"
   sodipodi:docname="dark.svg">
  <defs
     id="defs2851">
    <inkscape:perspective
       sodipodi:type="inkscape:persp3d"
       inkscape:vp_x="0 : 128 : 1"
       inkscape:vp_y="0 : 1000 : 0"
       inkscape:vp_z="256 : 128 : 1"
       inkscape:persp3d-origin="128 : 85.333333 : 1"
       id="perspective10" />
  </defs>
  <sodipodi:namedview
     id="base"
     pagecolor="#ffffff"
     bordercolor="#666666"
     borderopacity="1.0"
     inkscape:pageopacity="0.0"
     inkscape:pageshadow="2"
     inkscape:zoom="2.7421875"
     inkscape:cx="128"
     inkscape:cy="128"
     inkscape:document-units="px"
     inkscape:current-layer="layer1"
     showgrid="false"
     inkscape:window-width="1680"
     inkscape:window-height="964"
     inkscape:window-x="0"
     inkscape:window-y="31"
     inkscape:window-maximized="1" />
  <metadata
     id="metadata2854">
    <rdf:RDF>
      <cc:Work
         rdf:about="">
        <dc:format>image/svg+xml</dc:format>
        <dc:type
           rdf:resource="http://purl.org/dc/dcmitype/StillImage" />
        <dc:title />
      </cc:Work>
    </rdf:RDF>
  </metadata>
  <g
     inkscape:label="Layer 1"
     inkscape:groupmode="layer"
     id="layer1"
     transform="translate(20,-836.77237)">
    <rect
       style="fill:#000000;fill-opacity:1;stroke:none"
       id="rect2823"
       width="256"
       height="256"
       x="-20"
       y="836.77234" />
    <path
       style="fill:#ffffff;fill-opacity:1;stroke:none"
       d="M 78 28 C 61.38 28 48 41.38 48 58 L 48 158 C 48 174.62 61.38 188 78 188 L 122.65625 188 C 122.65625 188 101.84649 184.04165 96.9375 170.90625 C 92.02841 157.77094 107.52564 150.28633 117.34375 136.3125 C 127.16202 122.33873 127.56244 114.1875 127.5625 114.1875 C 128.49754 121.17438 125.29624 135.83697 114.25 152.5 C 108.42545 161.2863 107.51264 162.04784 106.34375 169.59375 C 105.17501 177.13965 122.65618 188 122.65625 188 L 178 188 C 194.62 188 208 174.62 208 158 L 208 124.40625 C 192.48666 126.34353 181.99993 127.6875 182 127.6875 L 180.78125 109.90625 C 180.14361 100.19969 173.75312 92.18414 162.28125 89.6875 C 162.30395 90.47374 162.2694 91.36222 162.375 92.1875 C 161.72828 91.28958 161.11078 90.30545 160.5625 89.40625 C 151.28602 87.90097 138.94285 89.75566 123.84375 96.6875 L 120.0625 93.3125 C 128.64327 88.89554 136.35081 85.87425 143.15625 83.90625 C 135.51398 73.74497 131.79771 60.58527 135.75 50.09375 C 125.8467 58.59615 119.81134 72.11726 122.75 85.6875 C 113.43966 68.6203 112.18426 49.89281 112.84375 29.90625 C 112.86519 29.26081 112.98225 28.64352 113.03125 28 L 78 28 z M 156.46875 56 C 147.1444 62.82912 144.71336 70.9003 143.875 83.6875 C 148.64383 82.34638 152.91253 81.55902 156.875 81.1875 C 154.02469 72.07742 154.2275 64.89344 156.46875 56 z M 172.78125 68.40625 C 168.76551 72.42033 165.59655 76.47008 163.78125 81 C 167.54183 81.13664 170.83245 81.62768 173.78125 82.5 C 173.26771 78.6648 173.27703 74.42161 172.78125 68.40625 z M 192.40625 79.3125 C 189.06968 82.61138 186.48172 85.53758 184.59375 88.1875 C 190.97244 93.32318 193.63962 99.80622 194 102.6875 L 195.28125 113.3125 C 195.28125 113.3125 198.27614 112.8701 198.6875 112.8125 C 193.00782 100.72354 191.98539 91.02002 192.40625 79.3125 z M 208 90.5 C 203.7832 94.36144 201.71881 100.47726 199.5 112.6875 C 200.48518 112.54894 205.66512 111.82384 208 111.5 L 208 90.5 z M 144.53125 99.28125 C 145.13544 99.28685 145.76052 99.3125 146.375 99.3125 C 156.20655 99.38322 168.23624 101.06353 174.09375 103.40625 C 167.19058 102.32945 161.37862 102.18545 156.375 102.40625 C 157.15836 104.48785 158.15619 106.45952 158.15625 109 C 158.15616 117.56512 153.77584 124.40625 148.0625 124.40625 C 142.34899 124.40625 137.46878 117.56512 137.46875 109 C 137.46875 107.54176 138.0648 106.30143 138.5625 105.09375 C 135.41239 105.81668 133.07689 106.21408 132.15625 105 C 129.3615 101.31424 134.75835 99.6293 142.75 99.3125 C 143.32083 99.2902 143.92707 99.27525 144.53125 99.28125 z "
       transform="translate(-20,836.77237)"
       id="rect2820" />
    <path
       d="m 208,1064.1846 c -0.58244,0.154 -1.17906,0.2729 -1.7899,0.357 -0.59664,0.098 -1.29271,0.1469 -2.08821,0.1469 -3.06841,0 -4.6026,-1.7145 -4.6026,-5.1435 l 0,-15.1574 -2.66355,0 0,-2.7502 2.8127,0 1.12935,-5.0805 2.557,0 0,5.0805 4.26166,0 0,2.7502 -4.26166,0 0,14.3386 c -1e-5,1.0918 0.17756,1.8616 0.53271,2.3094 0.36933,0.4338 1.00148,0.6508 1.89644,0.6508 0.36933,0 0.72447,-0.028 1.06542,-0.084 0.35513,-0.056 0.73868,-0.126 1.15064,-0.21 l 0,2.7922 m -30.21521,-10.3919 c 0,1.1896 0.12074,2.2882 0.36224,3.296 0.25569,0.9936 0.63924,1.8545 1.15065,2.5822 0.52559,0.7138 1.19326,1.2736 2.00298,1.6796 0.80971,0.3918 1.78279,0.5877 2.91924,0.5877 1.66204,0 2.99026,-0.3289 3.98467,-0.9867 1.00857,-0.6578 1.69044,-1.4905 2.0456,-2.4982 l 3.36671,0.9447 c -0.24152,0.6297 -0.58245,1.2665 -1.0228,1.9104 -0.42619,0.6298 -1.00151,1.2036 -1.72597,1.7215 -0.7245,0.5038 -1.63366,0.9238 -2.72748,1.2596 -1.07963,0.3219 -2.38654,0.4829 -3.92073,0.4829 -3.40934,0 -6.00896,-1.0007 -7.79884,-3.0022 -1.77571,-2.0013 -2.66354,-4.9754 -2.66354,-8.9222 0,-2.1274 0.26989,-3.9259 0.80971,-5.3955 0.5398,-1.4835 1.27849,-2.6872 2.21606,-3.6108 0.93756,-0.9238 2.0314,-1.5885 3.28149,-1.9945 1.25008,-0.4199 2.5854,-0.6297 4.00597,-0.6297 1.93193,0 3.54426,0.3079 4.83698,0.9236 1.3069,0.6159 2.351,1.4696 3.13233,2.5613 0.79549,1.0777 1.35661,2.3513 1.68336,3.8208 0.34091,1.4697 0.51138,3.0581 0.5114,4.7656 l 0,0.5039 -16.45003,0 m 12.48668,-2.8971 c -0.2131,-2.3933 -0.83104,-4.1358 -1.85383,-5.2275 -1.02281,-1.1057 -2.49309,-1.6585 -4.41082,-1.6585 -0.63926,0 -1.31402,0.1049 -2.02429,0.3149 -0.69609,0.196 -1.34244,0.5528 -1.93905,1.0707 -0.59665,0.5178 -1.10095,1.2247 -1.5129,2.1203 -0.41197,0.8818 -0.64636,2.0085 -0.70318,3.3801 l 12.44407,0 m -25.07991,13.4569 0,-14.4016 c -2e-5,-1.1057 -0.0853,-2.0295 -0.25569,-2.7713 -0.15628,-0.7417 -0.41909,-1.3365 -0.78842,-1.7844 -0.36936,-0.4619 -0.85944,-0.7838 -1.47027,-0.9658 -0.59665,-0.1958 -1.34244,-0.2939 -2.23738,-0.2939 -0.90916,0 -1.73309,0.161 -2.47177,0.4829 -0.72449,0.3079 -1.34952,0.7628 -1.87513,1.3646 -0.5114,0.5879 -0.90916,1.3226 -1.19326,2.2044 -0.28412,0.8677 -0.42618,1.8683 -0.42617,3.002 l 0,13.1631 -3.83549,0 0,-17.8656 c -1e-5,-0.4759 -0.007,-0.9728 -0.0213,-1.4905 0,-0.532 -0.007,-1.0288 -0.0213,-1.4907 -0.0142,-0.4758 -0.0284,-0.8817 -0.0426,-1.2176 -0.0142,-0.3358 -0.0284,-0.5529 -0.0426,-0.6508 l 3.62242,0 c 0.0142,0.07 0.0284,0.2589 0.0426,0.5668 0.0142,0.3079 0.0284,0.6648 0.0426,1.0707 0.0284,0.3918 0.0497,0.7978 0.064,1.2177 0.0142,0.4058 0.0213,0.7487 0.0213,1.0286 l 0.0639,0 c 0.36934,-0.6577 0.7742,-1.2526 1.21457,-1.7844 0.44037,-0.5318 0.95177,-0.9797 1.53421,-1.3436 0.58241,-0.3779 1.25007,-0.6649 2.00298,-0.8608 0.75288,-0.2098 1.62652,-0.3148 2.62093,-0.3148 1.27848,0 2.37941,0.1539 3.30279,0.4618 0.92334,0.3079 1.68333,0.7838 2.27999,1.4276 0.59661,0.6438 1.02988,1.4765 1.29981,2.4983 0.28408,1.0077 0.42614,2.2112 0.42616,3.6108 l 0,15.1365 -3.85681,0 m -25.69791,0 0,-4.5976 4.15512,0 0,4.5976 -4.15512,0 m -11.63436,0 0,-13.7089 -16.23695,0 0,13.7089 -4.06989,0 0,-29.5801 4.06989,0 0,12.5123 16.23695,0 0,-12.5123 4.06989,0 0,29.5801 -4.06989,0 m -25.27168,0 -23.907948,0 0,-3.002 18.282549,-23.3032 -16.72704,0 0,-3.2749 21.350949,0 0,2.9181 -18.28255,23.387 19.28404,0 0,3.275 m -43.703385,-10.5598 c -5e-6,1.1896 0.120741,2.2882 0.362241,3.296 0.255695,0.9936 0.639244,1.8545 1.150651,2.5822 0.525597,0.7138 1.193257,1.2736 2.002983,1.6796 0.809706,0.3918 1.782786,0.5877 2.919241,0.5877 1.662036,0 2.990255,-0.3289 3.984658,-0.9867 1.008578,-0.6578 1.690443,-1.4905 2.0456,-2.4982 l 3.366717,0.9447 c -0.241517,0.6297 -0.582449,1.2665 -1.022801,1.9104 -0.426186,0.6298 -1.00151,1.2036 -1.725975,1.7215 -0.724501,0.5038 -1.633656,0.9238 -2.727466,1.2596 -1.079638,0.3219 -2.386547,0.4829 -3.920733,0.4829 -3.409342,0 -6.008956,-1.0007 -7.79885,-3.0022 -1.775696,-2.0013 -2.663542,-4.9754 -2.66354,-8.9222 -2e-6,-2.1274 0.269903,-3.9259 0.809716,-5.3955 0.539808,-1.4835 1.278496,-2.6872 2.216066,-3.6108 0.937561,-0.9238 2.031388,-1.5885 3.281484,-1.9945 1.250079,-0.4199 2.5854,-0.6297 4.005966,-0.6297 1.931941,0 3.54427,0.3079 4.836991,0.9236 1.306893,0.6159 2.351,1.4696 3.132325,2.5613 0.79549,1.0777 1.356609,2.3513 1.683358,3.8208 0.340912,1.4697 0.511378,3.0581 0.5114,4.7656 l 0,0.5039 -16.450032,0 m 12.486682,-2.8971 c -0.213102,-2.3933 -0.831043,-4.1358 -1.853825,-5.2275 -1.022815,-1.1057 -2.493088,-1.6585 -4.410824,-1.6585 -0.639261,0 -1.314024,0.1049 -2.024291,0.3149 -0.696082,0.196 -1.342434,0.5528 -1.939059,1.0707 -0.596641,0.5178 -1.100937,1.2247 -1.512891,2.1203 -0.411967,0.8818 -0.646359,2.0085 -0.703176,3.3801 l 12.444066,0 m -36.778179,2.8971 c -6e-6,1.1896 0.120741,2.2882 0.362241,3.296 0.255694,0.9936 0.639243,1.8545 1.15065,2.5822 0.525598,0.7138 1.193258,1.2736 2.002983,1.6796 0.809707,0.3918 1.782786,0.5877 2.919242,0.5877 1.662036,0 2.990254,-0.3289 3.984658,-0.9867 1.008577,-0.6578 1.690443,-1.4905 2.0456,-2.4982 l 3.366716,0.9447 c -0.241516,0.6297 -0.582449,1.2665 -1.0228,1.9104 -0.426187,0.6298 -1.001511,1.2036 -1.725975,1.7215 -0.724502,0.5038 -1.633656,0.9238 -2.727467,1.2596 -1.079636,0.3219 -2.386546,0.4829 -3.920732,0.4829 -3.409342,0 -6.008956,-1.0007 -7.79885,-3.0022 -1.775697,-2.0013 -2.663543,-4.9754 -2.663541,-8.9222 -2e-6,-2.1274 0.269903,-3.9259 0.809717,-5.3955 0.539807,-1.4835 1.278496,-2.6872 2.216066,-3.6108 0.937561,-0.9238 2.031387,-1.5885 3.281483,-1.9945 1.25008,-0.4199 2.5854,-0.6297 4.005967,-0.6297 1.93194,0 3.544269,0.3079 4.83699,0.9236 1.306894,0.6159 2.351001,1.4696 3.132325,2.5613 0.795491,1.0777 1.35661,2.3513 1.683358,3.8208 0.340912,1.4697 0.511378,3.0581 0.511401,4.7656 l 0,0.5039 -16.450032,0 m 12.486682,-2.8971 c -0.213101,-2.3933 -0.831042,-4.1358 -1.853824,-5.2275 -1.022816,-1.1057 -2.493089,-1.6585 -4.410826,-1.6585 -0.639261,0 -1.314024,0.1049 -2.024291,0.3149 -0.696082,0.196 -1.342434,0.5528 -1.939058,1.0707 -0.596641,0.5178 -1.100938,1.2247 -1.512892,2.1203 -0.411967,0.8818 -0.646358,2.0085 -0.703175,3.3801 l 12.444066,0 M 8,1064.3526 l 0,-29.5801 4.069892,0 0,26.3051 15.171532,0 0,3.275 -19.241424,0"
       style="font-size:43.61107254px;font-style:normal;font-weight:normal;text-align:center;text-anchor:middle;fill:#ffffff;fill-opacity:1;stroke:none;font-family:Liberation Sans;-inkscape-font-specification:Liberation Sans"
       id="path2835" />
  </g>
</svg>
