<?xml version="1.0" encoding="UTF-8" standalone="no"?>
<!-- Created with Inkscape (http://www.inkscape.org/) -->

<svg
   xmlns:dc="http://purl.org/dc/elements/1.1/"
   xmlns:cc="http://creativecommons.org/ns#"
   xmlns:rdf="http://www.w3.org/1999/02/22-rdf-syntax-ns#"
   xmlns:svg="http://www.w3.org/2000/svg"
   xmlns="http://www.w3.org/2000/svg"
   xmlns:sodipodi="http://sodipodi.sourceforge.net/DTD/sodipodi-0.dtd"
   xmlns:inkscape="http://www.inkscape.org/namespaces/inkscape"
   width="128"
   height="128"
   id="svg3729"
   version="1.1"
   inkscape:version="0.47 r22583"
   sodipodi:docname="icon.svg">
  <defs
     id="defs3731">
    <inkscape:perspective
       sodipodi:type="inkscape:persp3d"
       inkscape:vp_x="0 : 526.18109 : 1"
       inkscape:vp_y="0 : 1000 : 0"
       inkscape:vp_z="744.09448 : 526.18109 : 1"
       inkscape:persp3d-origin="372.04724 : 350.78739 : 1"
       id="perspective3737" />
    <inkscape:perspective
       id="perspective3719"
       inkscape:persp3d-origin="0.5 : 0.33333333 : 1"
       inkscape:vp_z="1 : 0.5 : 1"
       inkscape:vp_y="0 : 1000 : 0"
       inkscape:vp_x="0 : 0.5 : 1"
       sodipodi:type="inkscape:persp3d" />
  </defs>
  <sodipodi:namedview
     id="base"
     pagecolor="#ffffff"
     bordercolor="#666666"
     borderopacity="1.0"
     inkscape:pageopacity="0.0"
     inkscape:pageshadow="2"
     inkscape:zoom="7.8002717"
     inkscape:cx="46.708085"
     inkscape:cy="32.204496"
     inkscape:document-units="px"
     inkscape:current-layer="layer1"
     showgrid="false"
     inkscape:window-width="1680"
     inkscape:window-height="966"
     inkscape:window-x="0"
     inkscape:window-y="31"
     inkscape:window-maximized="1" />
  <metadata
     id="metadata3734">
    <rdf:RDF>
      <cc:Work
         rdf:about="">
        <dc:format>image/svg+xml</dc:format>
        <dc:type
           rdf:resource="http://purl.org/dc/dcmitype/StillImage" />
        <dc:title />
      </cc:Work>
    </rdf:RDF>
  </metadata>
  <g
     inkscape:label="Layer 1"
     inkscape:groupmode="layer"
     id="layer1"
     transform="translate(0,-924.36218)">
    <g
       id="g3758"
       transform="translate(-233.14285,510.28571)">
      <path
         sodipodi:nodetypes="csssc"
         id="path3963-5"
         d="m 244.24525,501.28948 c -4.6767,-0.30281 -5.4916,-6.75383 -4.9814,-14.61349 0.5101,-7.85979 2.1522,-14.1516 6.8289,-13.84879 4.6768,0.3028 10.6171,7.08575 10.1068,14.94541 -0.5101,7.85966 -7.2776,13.81967 -11.9543,13.51687 z"
         style="fill:#ffd42a;fill-opacity:1;stroke:#000000;stroke-width:1.20000005;stroke-miterlimit:4;stroke-dasharray:none" />
      <path
         style="fill:#1a1a1a;fill-opacity:1;stroke:#000000;stroke-width:1.20000005;stroke-miterlimit:4;stroke-dasharray:none"
         d="m 279.04055,500.9931 c -23.6453,-1.53116 -36.0401,-6.53851 -34.9551,-23.25474 0.7459,-11.4904 13.0624,-17.59325 41.3834,-15.75928 16.0261,1.03775 26.0115,3.77824 34.6247,7.00987 25.7889,-12.00373 43.1973,22.15371 6.3329,22.7539 -6.6887,5.37961 -16.159,11.2723 -47.3859,9.25025 z"
         id="path3965-1"
         sodipodi:nodetypes="cssccc" />
      <path
         sodipodi:type="arc"
         style="fill:#f9f9f9;fill-opacity:1;stroke:#000000;stroke-width:0.95133269;stroke-miterlimit:4;stroke-dasharray:none"
         id="path3967-1"
         sodipodi:cx="211.25"
         sodipodi:cy="278.61218"
         sodipodi:rx="2.8571429"
         sodipodi:ry="2.8571429"
         d="m 214.10714,278.61218 c 0,1.57796 -1.27918,2.85715 -2.85714,2.85715 -1.57796,0 -2.85714,-1.27919 -2.85714,-2.85715 0,-1.57795 1.27918,-2.85714 2.85714,-2.85714 1.57796,0 2.85714,1.27919 2.85714,2.85714 z"
         transform="matrix(-0.08165698,1.2579904,-1.2595015,-0.08155902,707.99845,231.13659)" />
      <path
         style="fill:#ffd42a;fill-opacity:1;stroke:#000000;stroke-width:1.20000005;stroke-miterlimit:4;stroke-dasharray:none"
         d="m 352.26075,480.00611 c -5.2036,-2.25666 -7.7808,-3.71382 -11.9017,3.19709 -2.979,4.996 0.8607,4.58202 7.0721,4.39153 14.8293,-0.45496 15.5556,-2.93689 4.8296,-7.58862 z"
         id="path3969-6"
         sodipodi:nodetypes="csss" />
      <path
         id="path3971-1"
         d="m 288.19535,483.08444 c -17.2853,-1.11931 -32.761,1.12449 -42.2516,5.47531 4.2795,8.26293 15.6193,11.31505 33.1043,12.44735 30.5883,1.9807 40.2707,-3.63541 46.9417,-8.92199 -9.0482,-4.59955 -22.5268,-8.01208 -37.7944,-9.00067 z"
         style="fill:#f9f9f9;fill-opacity:1;stroke:#000000;stroke-width:1.20000005;stroke-linecap:round;stroke-linejoin:round;stroke-miterlimit:4;stroke-opacity:1;stroke-dasharray:none" />
      <path
         style="fill:#b7c8c4;fill-opacity:1;stroke:#000000;stroke-width:1.20000005;stroke-linecap:round;stroke-linejoin:round;stroke-miterlimit:4;stroke-opacity:1;stroke-dasharray:none"
         d="m 323.04395,456.82386 c 0,0 1.0982,7.40507 1.0982,11.12733 0,3.72227 -1.0982,11.12747 -1.0982,11.12747 0,0.71327 -0.6728,1.28749 -1.5085,1.28749 0,0 -28.4834,2.41789 -44.6911,-1.16659 -4.5406,-1.0041 -7.4871,-3.21083 -13.6678,-4.02709 l -27.3355,-2.44411 c 0,0 -1.0982,-3.18474 -1.0982,-4.77717 0,-1.5923 1.0982,-4.77703 1.0982,-4.77703 l 27.3355,-2.44411 c 6.1807,-0.81626 9.1272,-3.023 13.6678,-4.02721 16.2077,-3.58436 44.6911,-1.16647 44.6911,-1.16647 0.8357,0 1.5085,0.57421 1.5085,1.28749 z"
         id="path3973-9"
         sodipodi:nodetypes="czccsscscsscc" />
    </g>
  </g>
</svg>
