<?xml version="1.0" encoding="UTF-8" standalone="no"?>
<!-- Created with Inkscape (http://www.inkscape.org/) -->

<svg
   xmlns:dc="http://purl.org/dc/elements/1.1/"
   xmlns:cc="http://creativecommons.org/ns#"
   xmlns:rdf="http://www.w3.org/1999/02/22-rdf-syntax-ns#"
   xmlns:svg="http://www.w3.org/2000/svg"
   xmlns="http://www.w3.org/2000/svg"
   xmlns:sodipodi="http://sodipodi.sourceforge.net/DTD/sodipodi-0.dtd"
   xmlns:inkscape="http://www.inkscape.org/namespaces/inkscape"
   width="511.99997"
   height="128.00002"
   id="svg2"
   version="1.1"
   inkscape:version="0.48.0 r9654"
   sodipodi:docname="bird.svg">
  <defs
     id="defs4" />
  <sodipodi:namedview
     id="base"
     pagecolor="#ffffff"
     bordercolor="#666666"
     borderopacity="1.0"
     inkscape:pageopacity="0.0"
     inkscape:pageshadow="2"
     inkscape:zoom="3.0136721"
     inkscape:cx="256.66362"
     inkscape:cy="64.000007"
     inkscape:document-units="px"
     inkscape:current-layer="layer1"
     showgrid="false"
     inkscape:window-width="1680"
     inkscape:window-height="993"
     inkscape:window-x="0"
     inkscape:window-y="33"
     inkscape:window-maximized="1"
     fit-margin-top="0"
     fit-margin-left="0"
     fit-margin-right="0"
     fit-margin-bottom="0">
    <inkscape:grid
       type="xygrid"
       id="grid3793"
       empspacing="5"
       visible="true"
       enabled="true"
       snapvisiblegridlinesonly="true" />
  </sodipodi:namedview>
  <metadata
     id="metadata7">
    <rdf:RDF>
      <cc:Work
         rdf:about="">
        <dc:format>image/svg+xml</dc:format>
        <dc:type
           rdf:resource="http://purl.org/dc/dcmitype/StillImage" />
        <dc:title />
      </cc:Work>
    </rdf:RDF>
  </metadata>
  <g
     inkscape:label="Layer 1"
     inkscape:groupmode="layer"
     id="layer1"
     transform="translate(-1.373463,-922.99347)">
    <g
       id="g2997"
       transform="translate(128,0)">
      <path
         transform="matrix(1.1637107,0.15693017,-0.15654815,1.1665504,-120.20393,209.88276)"
         d="m 295.00001,627.31757 c 0,0.91225 -4.27728,1.65178 -9.55357,1.65178 -5.27629,0 -9.55357,-0.73953 -9.55357,-1.65178 0,-0.91226 4.27728,-1.65179 9.55357,-1.65179 5.27629,0 9.55357,0.73953 9.55357,1.65179 z"
         sodipodi:ry="1.6517857"
         sodipodi:rx="9.5535717"
         sodipodi:cy="627.31757"
         sodipodi:cx="285.44644"
         id="path2993"
         style="fill:#b3b3b3;fill-opacity:1;stroke:#000000;stroke-width:1.27591693;stroke-linejoin:round;stroke-miterlimit:4;stroke-dasharray:none"
         sodipodi:type="arc" />
      <path
         sodipodi:nodetypes="csssscscsc"
         inkscape:connector-curvature="0"
         id="path2985"
         d="m 91.514651,976.48267 c -11.978662,0.80076 -27.102203,4.58837 -36.452417,6.06922 -4.640814,0.73499 -14.439348,2.48479 -24.511284,2.42768 -13.920072,-0.079 -24.9774977,-3.63061 -25.4286233,-1.5449 -0.4511211,2.08574 10.2099143,6.16534 23.8141073,9.12222 0.625366,0.13592 1.219494,0.24147 1.834674,0.36784 5.424478,5.10039 18.793784,13.83037 33.831446,13.83037 16.011203,0 26.298101,-4.6688 30.728212,-10.38324 7.331744,-1.06971 19.724684,-3.07534 19.122594,-11.86523 -0.73013,-10.65916 -14.538292,-12.06375 -22.938709,-8.02396 z"
         style="fill:#ffffff;fill-opacity:1;stroke:#000000;stroke-width:1.5;stroke-linecap:round;stroke-linejoin:round;stroke-miterlimit:4;stroke-dasharray:none" />
      <path
         sodipodi:nodetypes="cssssc"
         inkscape:connector-curvature="0"
         id="path2995"
         d="m 48.405838,987.9821 c -0.153294,3.04749 10.449591,9.04392 9.839444,13.1777 -0.563646,3.8187 -12.704231,13.8347 -8.220328,15.302 2.951627,0.966 17.048408,-3.8032 26.162738,-7.6326 9.409776,-3.9534 13.686821,-4.3856 13.990593,-6.6515 0.554446,-4.1352 -0.678013,-10.94234 -3.936498,-13.6567"
         style="fill:#ffffff;fill-opacity:1;stroke:#000000;stroke-width:1.5;stroke-linecap:round;stroke-linejoin:round;stroke-miterlimit:4;stroke-dasharray:none" />
      <path
         transform="matrix(0.68622478,0,0,0.68620146,-167.70521,574.09846)"
         d="m 402.14287,593.07648 c 0,1.97244 -1.59898,3.57143 -3.57143,3.57143 -1.97244,0 -3.57143,-1.59899 -3.57143,-3.57143 0,-1.97245 1.59899,-3.57143 3.57143,-3.57143 1.97245,0 3.57143,1.59898 3.57143,3.57143 z"
         sodipodi:ry="3.5714285"
         sodipodi:rx="3.5714285"
         sodipodi:cy="593.07648"
         sodipodi:cx="398.57144"
         id="path3791"
         style="fill:#ffffff;fill-opacity:1;stroke:#000000;stroke-width:2.18590975;stroke-linecap:square;stroke-linejoin:round;stroke-miterlimit:4;stroke-opacity:1;stroke-dasharray:none"
         sodipodi:type="arc" />
      <path
         transform="matrix(0.82220835,0,0,0.96978421,-62.581971,919.49698)"
         d="m 231.94296,69.599503 c 0,35.735647 -34.16912,64.705117 -76.31886,64.705117 -42.14974,0 -76.318856,-28.96947 -76.318856,-64.705117 0,-35.735649 34.169116,-64.7051167 76.318856,-64.7051167 42.14974,0 76.31886,28.9694677 76.31886,64.7051167 z"
         sodipodi:ry="64.705116"
         sodipodi:rx="76.318855"
         sodipodi:cy="69.599503"
         sodipodi:cx="155.6241"
         id="path3790"
         style="fill:none;stroke:#666666;stroke-width:1.67982006;stroke-miterlimit:4;stroke-dasharray:none"
         sodipodi:type="arc" />
    </g>
    <path
       sodipodi:type="arc"
       style="fill:#b3b3b3;fill-opacity:1;stroke:#000000;stroke-width:1.27591692999999995;stroke-linejoin:round;stroke-miterlimit:4;stroke-dasharray:none"
       id="path2993-2"
       sodipodi:cx="285.44644"
       sodipodi:cy="627.31757"
       sodipodi:rx="9.5535717"
       sodipodi:ry="1.6517857"
       d="m 295.00001,627.31757 c 0,0.91225 -4.27728,1.65178 -9.55357,1.65178 -5.27629,0 -9.55357,-0.73953 -9.55357,-1.65178 0,-0.91226 4.27728,-1.65179 9.55357,-1.65179 5.27629,0 9.55357,0.73953 9.55357,1.65179 z"
       transform="matrix(1.1637107,0.15693017,-0.15654815,1.1665504,135.54608,210.13276)" />
    <path
       style="fill:#ffffff;fill-opacity:1;stroke:#000000;stroke-width:1.5;stroke-linecap:round;stroke-linejoin:round;stroke-miterlimit:4;stroke-dasharray:none"
       d="m 347.26465,976.73267 c -11.97866,0.80077 -27.1022,4.58837 -36.45241,6.06923 -4.64082,0.73498 -14.43935,2.48479 -24.51129,2.42768 -13.92007,-0.079 -24.97749,-3.63062 -25.42862,-1.5449 -0.45112,2.08573 10.20991,6.16534 23.81411,9.12221 0.62536,0.13592 1.21949,0.24147 1.83467,0.36784 5.42448,5.10039 18.79379,13.83037 33.83145,13.83037 16.0112,0 26.2981,-4.6688 30.72821,-10.38323 7.33174,-1.06971 19.72468,-3.07535 19.12259,-11.86523 -0.73013,-10.65916 -14.53829,-12.06376 -22.93871,-8.02397 z"
       id="path2985-5"
       inkscape:connector-curvature="0"
       sodipodi:nodetypes="csssscscsc" />
    <path
       style="fill:#ffffff;fill-opacity:1;stroke:#000000;stroke-width:1.5;stroke-linecap:round;stroke-linejoin:round;stroke-miterlimit:4;stroke-dasharray:none"
       d="m 304.15584,988.2321 c -0.15329,3.04749 10.44959,9.04392 9.83945,13.1777 -0.56365,3.8187 -12.70424,13.8348 -8.22033,15.3021 2.95162,0.9659 17.0484,-3.8032 26.16273,-7.6327 9.40978,-3.9534 13.68683,-4.3856 13.9906,-6.6515 0.55444,-4.13519 -0.67801,-10.94234 -3.9365,-13.6567"
       id="path2995-8"
       inkscape:connector-curvature="0"
       sodipodi:nodetypes="cssssc" />
    <path
       style="fill:none;stroke:#000000;stroke-width:1.5;stroke-linecap:round;stroke-linejoin:round;stroke-miterlimit:4;stroke-opacity:1;stroke-dasharray:none"
       d="m 361.5588,982.07318 -3.54737,-1.02076 -0.23833,4.20786 3.79624,0.35491 3.24025,-2.02788 -1.33422,-4.7529 -5.01921,-0.38024"
       id="path3795"
       inkscape:connector-curvature="0"
       sodipodi:nodetypes="ccccccc" />
    <g
       id="g3004"
       transform="translate(-128,0)">
      <path
         sodipodi:type="arc"
         style="fill:#b3b3b3;fill-opacity:1;stroke:#000000;stroke-width:1.27591693;stroke-linejoin:round;stroke-miterlimit:4;stroke-dasharray:none"
         id="path2997"
         sodipodi:cx="285.44644"
         sodipodi:cy="627.31757"
         sodipodi:rx="9.5535717"
         sodipodi:ry="1.6517857"
         d="m 295.00001,627.31757 c 0,0.91225 -4.27728,1.65178 -9.55357,1.65178 -5.27629,0 -9.55357,-0.73953 -9.55357,-1.65178 0,-0.91226 4.27728,-1.65179 9.55357,-1.65179 5.27629,0 9.55357,0.73953 9.55357,1.65179 z"
         transform="matrix(1.1637107,0.15693017,-0.15654815,1.1665504,7.7960698,209.88276)" />
      <path
         style="fill:#ffffff;fill-opacity:1;stroke:#000000;stroke-width:1.5;stroke-linecap:round;stroke-linejoin:round;stroke-miterlimit:4;stroke-dasharray:none"
         d="m 219.51465,976.48267 c -11.97866,0.80076 -27.1022,4.58837 -36.45242,6.06922 -4.64081,0.73499 -14.43934,2.48479 -24.51128,2.42768 -13.92007,-0.079 -24.9775,-3.63061 -25.42862,-1.5449 -0.45112,2.08574 10.20991,6.16534 23.8141,9.12222 0.62537,0.13592 1.2195,0.24147 1.83468,0.36784 5.42448,5.10039 18.79378,13.83037 33.83144,13.83037 16.01121,0 26.2981,-4.6688 30.72822,-10.38324 7.33174,-1.06971 19.72468,-3.07534 19.12259,-11.86523 -0.73013,-10.65916 -14.53829,-12.06375 -22.93871,-8.02396 z"
         id="path2999"
         inkscape:connector-curvature="0"
         sodipodi:nodetypes="csssscscsc" />
      <path
         style="fill:#ffffff;fill-opacity:1;stroke:#000000;stroke-width:1.49999988;stroke-linecap:round;stroke-linejoin:round;stroke-miterlimit:4;stroke-dasharray:none"
         d="m 176.40584,987.9821 c -0.1533,-5.70089 10.44959,-16.91832 9.83944,-24.65132 -0.56364,-7.14358 -12.70423,-25.88036 -8.22033,-28.62521 2.95163,-1.80708 17.04841,7.11459 26.16274,14.27818 9.40978,7.39557 13.68682,8.20408 13.9906,12.44286 0.55444,7.73565 -0.67802,20.46966 -3.9365,25.54738"
         id="path3001"
         inkscape:connector-curvature="0"
         sodipodi:nodetypes="cssssc" />
      <path
         sodipodi:type="arc"
         style="fill:#ffffff;fill-opacity:1;stroke:#000000;stroke-width:2.18590975;stroke-linecap:square;stroke-linejoin:round;stroke-miterlimit:4;stroke-opacity:1;stroke-dasharray:none"
         id="path3003"
         sodipodi:cx="398.57144"
         sodipodi:cy="593.07648"
         sodipodi:rx="3.5714285"
         sodipodi:ry="3.5714285"
         d="m 402.14287,593.07648 c 0,1.97244 -1.59898,3.57143 -3.57143,3.57143 -1.97244,0 -3.57143,-1.59899 -3.57143,-3.57143 0,-1.97245 1.59899,-3.57143 3.57143,-3.57143 1.97245,0 3.57143,1.59898 3.57143,3.57143 z"
         transform="matrix(0.68622478,0,0,0.68620146,-39.70521,574.09846)" />
      <path
         sodipodi:type="arc"
         style="fill:none;stroke:#666666;stroke-width:1.67982006;stroke-miterlimit:4;stroke-dasharray:none"
         id="path3005"
         sodipodi:cx="155.6241"
         sodipodi:cy="69.599503"
         sodipodi:rx="76.318855"
         sodipodi:ry="64.705116"
         d="m 231.94296,69.599503 c 0,35.735647 -34.16912,64.705117 -76.31886,64.705117 -42.14974,0 -76.318856,-28.96947 -76.318856,-64.705117 0,-35.735649 34.169116,-64.7051167 76.318856,-64.7051167 42.14974,0 76.31886,28.9694677 76.31886,64.7051167 z"
         transform="matrix(0.82220835,0,0,0.96978421,65.418029,919.49698)" />
    </g>
  </g>
</svg>
