<?xml version="1.0" encoding="UTF-8" standalone="no"?>
<!-- Created with Inkscape (http://www.inkscape.org/) -->

<svg
   xmlns:dc="http://purl.org/dc/elements/1.1/"
   xmlns:cc="http://creativecommons.org/ns#"
   xmlns:rdf="http://www.w3.org/1999/02/22-rdf-syntax-ns#"
   xmlns:svg="http://www.w3.org/2000/svg"
   xmlns="http://www.w3.org/2000/svg"
   xmlns:sodipodi="http://sodipodi.sourceforge.net/DTD/sodipodi-0.dtd"
   xmlns:inkscape="http://www.inkscape.org/namespaces/inkscape"
   width="512"
   height="256"
   id="svg2865"
   version="1.1"
   inkscape:version="0.48.0 r9654"
   sodipodi:docname="cloud1.svg">
  <defs
     id="defs2867" />
  <sodipodi:namedview
     id="base"
     pagecolor="#ffffff"
     bordercolor="#666666"
     borderopacity="1.0"
     inkscape:pageopacity="0.0"
     inkscape:pageshadow="2"
     inkscape:zoom="3.0136719"
     inkscape:cx="256"
     inkscape:cy="128"
     inkscape:document-units="px"
     inkscape:current-layer="layer1"
     showgrid="false"
     inkscape:window-width="1680"
     inkscape:window-height="993"
     inkscape:window-x="0"
     inkscape:window-y="33"
     inkscape:window-maximized="1"
     fit-margin-top="0"
     fit-margin-left="0"
     fit-margin-right="0"
     fit-margin-bottom="0" />
  <metadata
     id="metadata2870">
    <rdf:RDF>
      <cc:Work
         rdf:about="">
        <dc:format>image/svg+xml</dc:format>
        <dc:type
           rdf:resource="http://purl.org/dc/dcmitype/StillImage" />
        <dc:title></dc:title>
      </cc:Work>
    </rdf:RDF>
  </metadata>
  <g
     inkscape:label="Layer 1"
     inkscape:groupmode="layer"
     id="layer1"
     transform="translate(0,-796.36218)">
    <path
       style="fill:#ffffff;fill-opacity:1;stroke:#ffffff;stroke-width:1;stroke-linecap:round;stroke-linejoin:round;stroke-miterlimit:4;stroke-opacity:1;stroke-dasharray:none"
       d="m 186.60341,933.8728 c -8.24726,0 -15.35418,3.6208 -18.61857,8.82851 -1.59773,-0.35675 -3.29647,-0.54884 -5.06212,-0.54884 -8.31453,0 -15.21036,4.27212 -16.50284,9.86348 -10.2787,1.32351 -18.10139,7.96521 -18.10139,15.97914 0,3.99974 1.95891,7.6612 5.18749,10.49071 -2.17663,2.232 -3.75089,4.80957 -4.5606,7.5897 -2.6913,-0.54901 -5.57549,-0.84678 -8.57269,-0.84678 -8.19608,0 -15.5325,2.23253 -20.452231,5.73931 0.380401,-1.30036 0.579871,-2.66177 0.579871,-4.07712 0,-6.00149 -3.651319,-11.18866 -8.964496,-13.67398 3.28749,-2.61932 5.328556,-6.2909 5.328556,-10.34959 0,-7.95957 -7.860561,-14.41102 -17.552865,-14.41102 -5.189218,0 -9.85768,1.84254 -13.070626,4.78276 -1.439678,-0.64642 -2.94142,-1.16173 -4.497927,-1.52107 -3.999169,-6.23096 -12.704798,-10.55344 -22.818716,-10.55344 -13.898416,0 -25.169546,8.15771 -25.169546,18.22155 0,2.3338 0.604119,4.56657 1.708265,6.61744 -7.0453899,1.83314 -11.97358,6.04212 -11.97358,10.9455 0,4.97235 5.0670183,9.23317 12.271355,11.02387 -0.534595,1.00343 -0.869096,2.05577 -0.971688,3.15192 -6.2084507,2.45792 -10.3123011,6.68777 -10.3123011,11.49425 0,6.7896 8.1810031,12.4302 18.9320271,13.5486 -0.0312,0.3968 -0.047,0.7881 -0.047,1.1918 0,9.5149 8.818959,17.2336 19.699962,17.2336 5.385961,0 10.266385,-1.8925 13.822872,-4.9553 3.013943,1.257 6.411704,1.9759 10.014537,1.9759 4.198302,0 8.116208,-0.9633 11.472062,-2.6345 4.652454,3.0933 10.627705,4.9554 17.161058,4.9554 10.216691,0 19.105181,-4.5466 23.633681,-11.2435 4.21716,2.8256 10.38964,4.6102 17.27076,4.6102 6.10631,0 11.64664,-1.4099 15.76625,-3.7007 5.25043,4.0594 13.65831,6.6802 23.13217,6.6802 4.18072,0 8.15312,-0.5216 11.73848,-1.4427 4.19523,8.1303 16.91827,14.0347 31.97128,14.0347 18.47027,0 33.4445,-8.8893 33.4445,-19.8681 0,-5.1741 -3.34172,-9.8715 -8.79213,-13.4074 1.38214,-1.845 2.16278,-3.936 2.16278,-6.147 0,-5.80509 -5.37403,-10.75728 -12.92959,-12.7018 2.3034,-2.31328 3.66732,-5.12871 3.66732,-8.1699 0,-7.86808 -9.04617,-14.25421 -20.20148,-14.25421 -2.06851,0 -4.06066,0.2198 -5.93977,0.62725 -1.43543,-3.9728 -5.13632,-7.18494 -9.90483,-8.6717 4.03988,-2.78326 6.58233,-6.75076 6.58233,-11.16501 0,-8.41702 -9.1924,-15.24212 -20.53058,-15.24212 z"
       id="path4365"
       inkscape:connector-curvature="0" />
    <path
       inkscape:connector-curvature="0"
       style="fill:#ffffff;fill-opacity:1;stroke:#ffffff;stroke-width:1;stroke-linecap:round;stroke-linejoin:round;stroke-miterlimit:4;stroke-opacity:1;stroke-dasharray:none"
       d="m 61.864356,809.86218 c -16.70893,0 -30.2439,12.52131 -30.2439,27.97863 0,0.13614 0.0182,0.27155 0.0204,0.40725 -13.69582,4.54826 -23.1408501,14.09458 -23.1408501,25.14808 0,7.15982 3.9715701,13.68275 10.4815701,18.63215 -0.28095,1.2117 -0.44776,2.4526 -0.44776,3.7264 0,11.6771 12.31908,21.1571 27.51665,21.1571 11.63163,0 21.57643,-5.5614 25.60351,-13.3987 4.98377,2.1297 10.72343,3.3598 16.83156,3.3598 2.70687,0 5.32777,-0.262 7.85608,-0.7127 -0.75419,1.0435 -1.18045,2.1528 -1.18045,3.2987 0,6.3006 12.260584,11.4033 27.374184,11.4033 9.46162,0 17.79883,-2.0069 22.71345,-5.05 2.87526,0.312 5.86153,0.4887 8.91442,0.4887 13.98607,0 26.40133,-3.4492 34.35511,-8.7967 3.90494,0.9544 8.21738,1.4864 12.76104,1.4864 17.4646,0 31.62786,-7.8309 31.62786,-17.4917 0,-0.8493 -0.11416,-1.6876 -0.32564,-2.5047 8.84788,-3.1766 14.91842,-9.71563 14.91842,-17.26772 0,-10.66894 -12.12322,-19.32438 -27.06889,-19.32438 -3.66544,0 -7.15105,0.52348 -10.3391,1.46613 -0.0372,-16.60514 -15.1274,-30.05565 -33.74452,-30.05565 -11.09584,0 -20.93744,4.78058 -27.08925,12.15666 -3.03276,-1.15796 -6.35198,-1.81229 -9.85063,-1.81229 -9.157,0 -17.18893,4.37931 -21.65512,10.95523 -5.30572,-4.59171 -14.24935,-7.61573 -24.402704,-7.61573 -1.11706,0 -2.23268,0.0511 -3.31747,0.12218 -4.41651,-10.39568 -15.36315,-17.75644 -28.16793,-17.75644 z"
       id="path4300" />
    <path
       inkscape:connector-curvature="0"
       style="fill:#ffffff;fill-opacity:1;stroke:#ffffff;stroke-width:1;stroke-linecap:round;stroke-linejoin:round;stroke-miterlimit:4;stroke-opacity:1;stroke-dasharray:none"
       d="m 339.23429,802.04068 c -12.88013,0 -23.6791,8.37981 -26.66349,19.6908 -1.86237,-0.9025 -3.95377,-1.44576 -6.17513,-1.44576 -7.6764,0 -13.90428,6.06466 -13.90428,13.54125 0,1.24835 0.18642,2.45641 0.51119,3.60421 -11.61068,1.02857 -20.67239,9.44398 -20.67239,19.67047 0,10.92077 10.32698,19.77223 23.06474,19.77223 0.6244,0 1.24884,-0.02 1.86072,-0.061 -0.89298,2.9094 -1.39043,6.1106 -1.39043,9.4892 0,13.1049 7.44944,23.743 16.64424,23.743 2.77123,0 5.3713,-0.9793 7.6678,-2.688 4.03699,3.4399 11.13517,5.722 19.22061,5.722 0.0208,0 0.0405,0 0.0613,0 6.2742,3.5349 15.74995,5.7831 26.35678,5.7831 8.2586,0 15.82408,-1.3707 21.73564,-3.645 4.25872,1.3359 9.26621,2.1176 14.61995,2.1176 9.68656,0 18.21581,-2.5189 23.26921,-6.3532 2.1661,0.376 4.44572,0.5704 6.80901,0.5704 10.90508,0 20.16688,-4.2793 23.53503,-10.2427 2.80141,0.538 5.77822,0.8147 8.85376,0.8147 16.95555,0 30.69162,-8.7725 30.69162,-19.6094 0,-8.6017 -8.66164,-15.92192 -20.71326,-18.57093 0.94978,-2.02306 1.47221,-4.15904 1.47221,-6.37354 0,-4.1048 -1.76487,-7.9602 -4.8256,-11.28099 3.22193,-3.54578 5.13231,-7.97573 5.13231,-12.76745 0,-11.67694 -11.35176,-21.13658 -25.35485,-21.13658 -9.21962,0 -17.27743,4.10632 -21.71521,10.24248 -4.82826,-2.64747 -11.08072,-4.29697 -17.95287,-4.4391 -9.14477,-6.19898 -22.00614,-10.0592 -36.25337,-10.0592 -5.6793,0 -11.12337,0.62109 -16.21482,1.7512 -4.99231,-4.83574 -11.96114,-7.83967 -19.67046,-7.83967 z"
       id="path4327" />
    <path
       style="fill:#ffffff;fill-opacity:1;stroke:none"
       d="m 413.28125,12.1875 c -8.04221,0 -15.22393,1.778533 -20.0625,4.5625 -5.53813,-1.200439 -12.00392,-1.90625 -18.9375,-1.90625 -11.26022,0 -21.30639,1.84953 -28.0625,4.71875 -5.17338,-3.840107 -13.99694,-6.375 -24.03125,-6.375 -15.9436,0 -28.84375,6.401081 -28.84375,14.28125 0,1.4548 0.4313,2.833962 1.25,4.15625 -8.6468,2.97783 -14.21875,7.576036 -14.21875,12.75 0,0.104131 0.0268,0.208835 0.0313,0.3125 -3.951,2.022545 -6.3125,4.552748 -6.3125,7.3125 0,3.38368 3.53566,6.451519 9.21875,8.625 -2.08489,1.468532 -3.25,3.085149 -3.25,4.8125 0,0.01037 -8e-5,0.02089 0,0.03125 -9.17036,1.662315 -15.59375,5.558071 -15.59375,10.09375 0,4.727122 6.99,8.747846 16.78125,10.28125 1.41781,2.113626 3.32854,4.093568 5.65625,5.875 -1.414,1.41874 -2.21875,2.964753 -2.21875,4.59375 0,6.68898 13.15651,12.125 29.375,12.125 15.06823,0 27.47067,-4.6905 29.15625,-10.71875 7.77149,-2.820115 13.82037,-7.068308 17.09375,-12.09375 3.05551,0.364129 6.22691,0.5625 9.5,0.5625 17.31526,0 32.15665,-5.393843 38.4375,-13.0625 3.28472,2.877907 8.61893,4.78125 14.65625,4.78125 4.39892,0 8.42743,-1.003399 11.5625,-2.65625 4.51375,3.775462 12.62863,6.28125 21.9375,6.28125 14.20263,0 25.71875,-5.85499 25.71875,-13.09375 0,-4.697155 -4.8403,-8.810866 -12.125,-11.125 -2.18986,-2.917477 -6.61419,-5.250116 -12.1875,-6.4375 -0.35539,-2.602618 -1.54994,-4.987413 -3.34375,-6.9375 5.39516,-2.555221 8.75,-6.084725 8.75,-10 0,-7.177389 -11.22382,-13.083089 -25.75,-13.96875 -4.0658,-4.576139 -13.36181,-7.78125 -24.1875,-7.78125 z"
       transform="translate(0,924.36218)"
       id="path3034"
       inkscape:connector-curvature="0" />
  </g>
</svg>
