<?xml version="1.0" encoding="UTF-8" standalone="no"?>
<!-- Created with Inkscape (http://www.inkscape.org/) -->

<svg
   xmlns:dc="http://purl.org/dc/elements/1.1/"
   xmlns:cc="http://creativecommons.org/ns#"
   xmlns:rdf="http://www.w3.org/1999/02/22-rdf-syntax-ns#"
   xmlns:svg="http://www.w3.org/2000/svg"
   xmlns="http://www.w3.org/2000/svg"
   xmlns:sodipodi="http://sodipodi.sourceforge.net/DTD/sodipodi-0.dtd"
   xmlns:inkscape="http://www.inkscape.org/namespaces/inkscape"
   width="128"
   height="128"
   id="svg2"
   version="1.1"
   inkscape:version="0.48.0 r9654"
   sodipodi:docname="penguin.svg">
  <defs
     id="defs4" />
  <sodipodi:namedview
     id="base"
     pagecolor="#ffffff"
     bordercolor="#666666"
     borderopacity="1.0"
     inkscape:pageopacity="0.0"
     inkscape:pageshadow="2"
     inkscape:zoom="6.2734375"
     inkscape:cx="64.637608"
     inkscape:cy="64"
     inkscape:document-units="px"
     inkscape:current-layer="layer1"
     showgrid="false"
     showguides="true"
     inkscape:guide-bbox="true"
     inkscape:window-width="1680"
     inkscape:window-height="993"
     inkscape:window-x="0"
     inkscape:window-y="33"
     inkscape:window-maximized="1">
    <inkscape:grid
       type="xygrid"
       id="grid3787"
       empspacing="5"
       visible="true"
       enabled="true"
       snapvisiblegridlinesonly="true" />
  </sodipodi:namedview>
  <metadata
     id="metadata7">
    <rdf:RDF>
      <cc:Work
         rdf:about="">
        <dc:format>image/svg+xml</dc:format>
        <dc:type
           rdf:resource="http://purl.org/dc/dcmitype/StillImage" />
        <dc:title />
      </cc:Work>
    </rdf:RDF>
  </metadata>
  <g
     inkscape:label="Layer 1"
     inkscape:groupmode="layer"
     id="layer1"
     transform="translate(0,-924.36218)">
    <path
       sodipodi:type="arc"
       style="fill:none;stroke:#2c89a0;stroke-width:1.08596753999999995;stroke-linecap:round;stroke-linejoin:round;stroke-miterlimit:4;stroke-opacity:1;stroke-dasharray:none;opacity:1"
       id="path2995"
       sodipodi:cx="65.833122"
       sodipodi:cy="66.470734"
       sodipodi:rx="45.429638"
       sodipodi:ry="45.429638"
       d="m 111.26276,66.470734 c 0,25.090096 -20.339542,45.429636 -45.429638,45.429636 -25.090096,0 -45.429638,-20.33954 -45.429638,-45.429636 0,-25.090097 20.339542,-45.429638 45.429638,-45.429638 25.090096,0 45.429638,20.339541 45.429638,45.429638 z"
       transform="matrix(1.3812569,0,0,1.3812569,-26.932453,896.54902)" />
    <g
       id="g3818"
       transform="matrix(0.26041824,0,0,0.26041824,-11.475207,872.16744)"
       style="stroke-width:5.75996542;stroke-miterlimit:4;stroke-dasharray:none">
      <path
         sodipodi:nodetypes="sssss"
         inkscape:connector-curvature="0"
         id="path3791"
         d="m 134.16202,437.06333 c 0,28.91588 -18.79689,72.52713 -31.93674,72.52713 -13.139838,0 -15.64685,-43.61125 -15.64685,-72.52713 0,-28.9159 3.364373,-32.18659 16.50421,-32.18659 13.13985,0 31.07938,3.27069 31.07938,32.18659 z"
         style="fill:#ffcc00;fill-opacity:1;stroke:#000000;stroke-width:5.75996542;stroke-linecap:round;stroke-linejoin:round;stroke-miterlimit:4;stroke-opacity:1;stroke-dasharray:none" />
      <path
         sodipodi:nodetypes="sssss"
         inkscape:connector-curvature="0"
         id="path2985"
         d="m 393.91667,461.78364 c 0,43.77243 -94.4865,65.21551 -173.25011,65.21551 -78.76361,0 -111.97815,-33.56982 -111.97815,-65.21551 0,-43.77244 -9.20865,-79.25701 111.97815,-79.25701 78.76361,0 173.25011,35.48457 173.25011,79.25701 z"
         style="fill:#1a1a1a;fill-opacity:1;stroke:#000000;stroke-width:5.75996542;stroke-linecap:round;stroke-linejoin:round;stroke-miterlimit:4;stroke-opacity:1;stroke-dasharray:none" />
      <path
         inkscape:connector-curvature="0"
         id="path2987"
         d="m 419.15799,453.37962 c 0,26.36909 -29.09643,47.74545 -64.98871,47.74545 -35.89228,0 -64.98871,-21.37636 -64.98871,-47.74545 0,-26.36908 29.09643,-47.74544 64.98871,-47.74544 35.89228,0 64.98871,21.37636 64.98871,47.74544 z"
         style="fill:#1a1a1a;fill-opacity:1;stroke:#000000;stroke-width:5.75996542;stroke-linecap:round;stroke-linejoin:round;stroke-miterlimit:4;stroke-opacity:1;stroke-dasharray:none" />
      <path
         transform="matrix(1.0707107,0,0,1.0707107,-31.460674,-34.663204)"
         d="m 402.09719,445.38693 c 0,3.52496 -2.85754,6.3825 -6.3825,6.3825 -3.52495,0 -6.38249,-2.85754 -6.38249,-6.3825 0,-3.52495 2.85754,-6.38249 6.38249,-6.38249 3.52496,0 6.3825,2.85754 6.3825,6.38249 z"
         sodipodi:ry="6.3824949"
         sodipodi:rx="6.3824949"
         sodipodi:cy="445.38693"
         sodipodi:cx="395.71469"
         id="path2992"
         style="fill:#000000;fill-opacity:1;stroke:#ffffff;stroke-width:5.37957191;stroke-linecap:round;stroke-linejoin:round;stroke-miterlimit:4;stroke-opacity:1;stroke-dasharray:none"
         sodipodi:type="arc" />
      <path
         id="path3764"
         d="m 218.59375,445.90625 c -46.14108,0.46627 -86.36262,11.91171 -107.8125,29.5625 8.40181,26.93627 42.44792,51.53125 109.875,51.53125 50.04971,0 106.46826,-8.64324 140.9375,-26.1875 0.42161,-0.0353 0.83088,-0.0838 1.25,-0.125 -11.26927,-27.63071 -60.94389,-50.49969 -123.5625,-54.28125 -6.99718,-0.42256 -13.90474,-0.56854 -20.6875,-0.5 z"
         style="fill:#ffffff;fill-opacity:1;stroke:#000000;stroke-width:5.75996542;stroke-linecap:round;stroke-linejoin:round;stroke-miterlimit:4;stroke-opacity:1;stroke-dasharray:none"
         inkscape:connector-curvature="0" />
      <path
         sodipodi:nodetypes="cccc"
         inkscape:connector-curvature="0"
         id="path2989"
         d="m 417.0514,455.99689 c -8.03528,2.82221 -11.81,16.81775 -9.49028,23.46816 l 60.96339,-1.92363 z"
         style="fill:#ffcc00;stroke:#000000;stroke-width:5.75996542;stroke-linecap:round;stroke-linejoin:round;stroke-miterlimit:4;stroke-opacity:1;stroke-dasharray:none" />
      <path
         sodipodi:nodetypes="ccccc"
         inkscape:connector-curvature="0"
         id="path3794"
         d="M 54.623516,426.44643 525.02257,418.26802 159.79378,365.37025 72.433961,366.88909 z"
         style="fill:#37abc8;stroke:#000000;stroke-width:5.75996542;stroke-linecap:round;stroke-linejoin:round;stroke-miterlimit:4;stroke-opacity:1;stroke-dasharray:none" />
      <g
         style="stroke:#000000;stroke-width:2.68245769;stroke-linecap:round;stroke-linejoin:round;stroke-miterlimit:4;stroke-opacity:1;stroke-dasharray:none"
         transform="matrix(2.1707841,0,0,2.1240139,-168.75016,-337.40592)"
         id="g3787">
        <g
           style="stroke:#000000;stroke-width:2.40487432;stroke-linecap:round;stroke-linejoin:round;stroke-miterlimit:4;stroke-opacity:1;stroke-dasharray:none"
           transform="matrix(1.1154253,0,0,1.1154253,-16.979832,-46.673522)"
           id="g3002">
          <path
             id="path3890"
             d="m 168.18693,359.01927 c -9.21326,0 -11.51658,9.41614 -18.42653,9.41614 l -11.51657,0 0,9.41613 11.51657,0 c 6.90995,0 9.21327,9.41613 18.42653,9.41613 l 11.51658,0 c 4.60663,0 4.60663,-2.35403 6.90994,-2.35403 l 4.60663,0 c 2.30332,0 2.30332,2.35403 6.90995,2.35403 l 32.24641,0 c 2.30332,0 2.30332,0 2.30332,-2.35403 l 0,-23.54034 c 0,-2.35403 0,-2.35403 -2.30332,-2.35403 l -32.24641,0 c -4.60663,0 -4.60663,2.35403 -6.90995,2.35403 l -4.60663,0 c -2.30331,0 -2.30331,-2.35403 -6.90994,-2.35403 l -11.51658,0 z"
             style="fill:#b3ff80;fill-opacity:1;stroke:#000000;stroke-width:2.40487432;stroke-linecap:round;stroke-linejoin:round;stroke-miterlimit:4;stroke-opacity:1;stroke-dasharray:none"
             inkscape:connector-curvature="0" />
          <rect
             y="359.01321"
             x="168.18694"
             height="28.248404"
             width="11.516576"
             id="rect3892"
             style="fill:#ccffaa;fill-opacity:1;stroke:#000000;stroke-width:2.40487432;stroke-linecap:round;stroke-linejoin:round;stroke-miterlimit:4;stroke-opacity:1;stroke-dasharray:none" />
        </g>
      </g>
    </g>
  </g>
</svg>
