<?xml version="1.0" encoding="UTF-8" standalone="no"?>
<!-- Created with Inkscape (http://www.inkscape.org/) -->

<svg
   xmlns:dc="http://purl.org/dc/elements/1.1/"
   xmlns:cc="http://creativecommons.org/ns#"
   xmlns:rdf="http://www.w3.org/1999/02/22-rdf-syntax-ns#"
   xmlns:svg="http://www.w3.org/2000/svg"
   xmlns="http://www.w3.org/2000/svg"
   xmlns:sodipodi="http://sodipodi.sourceforge.net/DTD/sodipodi-0.dtd"
   xmlns:inkscape="http://www.inkscape.org/namespaces/inkscape"
   width="512"
   height="256"
   id="svg2"
   version="1.1"
   inkscape:version="0.48.4 r9939"
   sodipodi:docname="New document 1">
  <defs
     id="defs4" />
  <sodipodi:namedview
     id="base"
     pagecolor="#ffffff"
     bordercolor="#666666"
     borderopacity="1.0"
     inkscape:pageopacity="0.0"
     inkscape:pageshadow="2"
     inkscape:zoom="1.2257602"
     inkscape:cx="242.72881"
     inkscape:cy="112.06609"
     inkscape:document-units="px"
     inkscape:current-layer="layer1"
     showgrid="false"
     inkscape:snap-nodes="false"
     fit-margin-top="0"
     fit-margin-left="0"
     fit-margin-right="0"
     fit-margin-bottom="0"
     inkscape:window-width="1366"
     inkscape:window-height="706"
     inkscape:window-x="-8"
     inkscape:window-y="-8"
     inkscape:window-maximized="1">
    <inkscape:grid
       type="xygrid"
       id="grid2985"
       empspacing="5"
       visible="true"
       enabled="true"
       snapvisiblegridlinesonly="true"
       originx="-99.5px"
       originy="-405.83774px" />
  </sodipodi:namedview>
  <metadata
     id="metadata7">
    <rdf:RDF>
      <cc:Work
         rdf:about="">
        <dc:format>image/svg+xml</dc:format>
        <dc:type
           rdf:resource="http://purl.org/dc/dcmitype/StillImage" />
        <dc:title></dc:title>
      </cc:Work>
    </rdf:RDF>
  </metadata>
  <g
     inkscape:label="Layer 1"
     inkscape:groupmode="layer"
     id="layer1"
     transform="translate(-99.5,-390.52443)">
    <g
       id="g3030"
       transform="matrix(1.3584732,0,0,1.4628558,-14.683947,-343.38042)"
       style="stroke-width:1.41874289000000010;stroke-miterlimit:4;stroke-dasharray:none;stroke:#000000;stroke-opacity:1;stroke-linejoin:round;stroke-linecap:round">
      <path
         style="fill:#666666;stroke:#000000;stroke-width:1.41874289000000010;stroke-linecap:round;stroke-linejoin:round;stroke-opacity:1;stroke-miterlimit:4;stroke-dasharray:none"
         d="m 100,587.36218 345,0 -320,-55 c -5,20 -10,45 -25,55 z"
         id="path3020"
         inkscape:connector-curvature="0"
         sodipodi:nodetypes="cccc" />
      <path
         sodipodi:nodetypes="aaasascsssaacccca"
         inkscape:connector-curvature="0"
         id="path2995"
         d="m 153.94853,596.00508 c 15.4967,-0.34035 30.84157,-3.3231 46.32534,-4.04166 30.04056,-1.39411 60.33713,-3.91643 90.21719,-0.51637 8.33925,0.94892 19.95204,5.49687 24.5027,5.79738 5.78839,0.38224 12.85675,-3.43709 19.36825,-2.94324 11.67388,0.88539 21.76593,0.68181 33.53058,10.45329 4.92568,4.09117 38.88321,6.71539 38.73625,14.71404 -4.96242,-2.09151 -35.92045,-4.66062 -42.99274,-0.78988 -7.84601,4.29421 -20.78362,3.23564 -34.10448,5.37444 -9.0301,1.44987 -15.56374,13.37414 -27.43428,15.65015 -10.79845,2.07045 -34.44941,7.00808 -51.83593,6.24103 -33.68154,-1.48596 -65.31783,-18.72604 -98.96284,-20.88649 -12.51312,-0.80351 -24.96822,-0.45605 -37.49711,2.9968 6.05625,-8.85305 33.5838,-15.71006 33.5838,-15.71006 l -19.6806,-4.58853 -17.50361,-13.63786 c 0,0 29.15495,2.20745 43.74748,1.88696 z"
         style="fill:#333333;stroke:#000000;stroke-width:1.41874289000000010;stroke-linecap:round;stroke-linejoin:round;stroke-opacity:1;stroke-miterlimit:4;stroke-dasharray:none" />
      <path
         transform="matrix(0.99545176,0.01822484,-0.01858644,1.0081128,9.5348489,-17.274977)"
         sodipodi:open="true"
         sodipodi:end="6.27432"
         sodipodi:start="0"
         d="m 358,611.36218 a 4,4 0 1 1 -1.6e-4,-0.0355"
         sodipodi:ry="4"
         sodipodi:rx="4"
         sodipodi:cy="611.36218"
         sodipodi:cx="354"
         id="path2991"
         style="fill:#ffffff;fill-opacity:1;stroke:#000000;stroke-width:1.41600811;stroke-linecap:round;stroke-linejoin:round;stroke-miterlimit:4;stroke-opacity:1;stroke-dasharray:none"
         sodipodi:type="arc" />
      <path
         sodipodi:nodetypes="cccc"
         inkscape:connector-curvature="0"
         id="path3014"
         d="m 100,587.36218 345,0 -310,-55 c -5,20 -20,45 -35,55 z"
         style="fill:#cccccc;stroke:#000000;stroke-width:1.41874289000000010;stroke-linecap:round;stroke-linejoin:round;stroke-opacity:1;stroke-miterlimit:4;stroke-dasharray:none" />
      <path
         inkscape:connector-curvature="0"
         id="path3024"
         d="m 100,587.36218 15,5 315,0 15,-5 z"
         style="fill:#666666;stroke:#000000;stroke-width:1.41874289000000010;stroke-linecap:round;stroke-linejoin:round;stroke-opacity:1;stroke-miterlimit:4;stroke-dasharray:none" />
      <path
         inkscape:connector-curvature="0"
         id="path3028"
         d="m 175,587.36218 145,0 0,5 -10,25 -115,0 -20,-25 z"
         style="fill:#999999;stroke:#000000;stroke-width:1.41874289000000010;stroke-linecap:round;stroke-linejoin:round;stroke-opacity:1;stroke-miterlimit:4;stroke-dasharray:none" />
    </g>
  </g>
</svg>
